<?xml version="1.0" encoding="iso-8859-1"?>
<!-- Generator: Adobe Illustrator 19.0.0, SVG Export Plug-In . SVG Version: 6.00 Build 0)  -->
<svg version="1.1" id="Layer_1" xmlns="http://www.w3.org/2000/svg" xmlns:xlink="http://www.w3.org/1999/xlink" x="0px" y="0px"
	 viewBox="0 0 512 512" style="enable-background:new 0 0 512 512;" xml:space="preserve">
<path style="fill:#0052B4;" d="M251.894,194.909h-21.561H72.214H50.652H29.091v71.872c0,23.088,14.701,44.729,40.335,59.378
	c22.21,12.692,51.277,19.682,81.847,19.682s59.636-6.99,81.847-19.682c25.634-14.649,40.335-36.292,40.335-59.378v-71.872H251.894z"
	/>
<path style="fill:#003778;" d="M251.894,194.909h-21.561h-79.06V345.84c30.57,0,59.636-6.99,81.847-19.682
	c25.634-14.648,40.335-36.29,40.335-59.377v-71.872H251.894z"/>
<path style="fill:#006DF0;" d="M251.894,123.037h-21.561H72.214H50.652H29.091v71.872c0,23.088,14.701,44.729,40.335,59.378
	c22.21,12.692,51.277,19.682,81.847,19.682s59.636-6.99,81.847-19.682c25.634-14.649,40.335-36.29,40.335-59.378v-71.872H251.894z"
	/>
<path style="fill:#0052B4;" d="M251.894,123.037h-21.561h-79.06v150.931c30.57,0,59.636-6.99,81.847-19.682
	c25.634-14.648,40.335-36.289,40.335-59.377v-71.872H251.894z"/>
<path style="fill:#93C7EF;" d="M233.119,63.66c-22.21-12.692-51.277-19.682-81.847-19.682s-59.636,6.99-81.847,19.682
	c-25.634,14.648-40.335,36.29-40.335,59.377s14.701,44.729,40.335,59.378c22.21,12.692,51.277,19.682,81.847,19.682
	s59.636-6.99,81.847-19.682c25.634-14.648,40.335-36.29,40.335-59.378S258.753,78.308,233.119,63.66z"/>
<path style="fill:#78B9EB;" d="M233.119,63.66c-22.21-12.692-51.277-19.682-81.847-19.682v158.117
	c30.57,0,59.636-6.99,81.847-19.682c25.634-14.647,40.335-36.289,40.335-59.377S258.753,78.308,233.119,63.66z"/>
<g>
	<path style="fill:#FF5023;" d="M395.636,148.022h-34.909c0-28.873-23.49-52.364-52.364-52.364V60.749
		C356.486,60.749,395.636,99.899,395.636,148.022z"/>
	<path style="fill:#FF5023;" d="M87.273,433.112C39.151,433.112,0,393.962,0,345.84h34.909c0,28.873,23.49,52.364,52.364,52.364
		V433.112z"/>
</g>
<rect x="133.539" y="171.299" style="fill:#003778;" width="361.286" height="239.709"/>
<rect x="314.182" y="171.299" width="180.643" height="239.709"/>
<path style="fill:#93C7EF;" d="M116.364,398.203v23.273c0,25.665,20.88,46.545,46.545,46.545h302.545
	c25.665,0,46.545-20.88,46.545-46.545v-23.273H116.364z"/>
<path style="fill:#78B9EB;" d="M314.209,398.203v69.818h151.246c25.665,0,46.545-20.88,46.545-46.545v-23.273H314.209z"/>
<g>
</g>
<g>
</g>
<g>
</g>
<g>
</g>
<g>
</g>
<g>
</g>
<g>
</g>
<g>
</g>
<g>
</g>
<g>
</g>
<g>
</g>
<g>
</g>
<g>
</g>
<g>
</g>
<g>
</g>
</svg>
