<?xml version="1.0" encoding="iso-8859-1"?>
<!-- Generator: Adobe Illustrator 19.0.0, SVG Export Plug-In . SVG Version: 6.00 Build 0)  -->
<svg version="1.1" id="Layer_1" xmlns="http://www.w3.org/2000/svg" xmlns:xlink="http://www.w3.org/1999/xlink" x="0px" y="0px"
	 viewBox="0 0 512 512" style="enable-background:new 0 0 512 512;" xml:space="preserve">
<path style="fill:#FFD652;" d="M486.324,338.461h-43.517V235.505c0-8.793-7.128-15.921-15.921-15.921H306.947l0.177,229.263h195.121
	v-94.465C502.245,345.589,495.118,338.461,486.324,338.461z"/>
<rect x="9.755" y="155.899" style="fill:#458FDE;" width="297.373" height="267.473"/>
<rect x="336.667" y="245.056" style="fill:#C4EDFD;" width="76.421" height="67.93"/>
<path style="fill:#4F5AA8;" d="M9.755,402.145v26.535c0,8.793,7.128,15.921,15.921,15.921h281.449v-42.456H9.755z"/>
<path style="fill:#FB9D46;" d="M307.125,402.145v42.456h179.2c8.793,0,15.921-7.128,15.921-15.921v-26.535H307.125z"/>
<path style="fill:#FF7452;" d="M486.324,465.829H25.676c-8.793,0-15.921-7.128-15.921-15.921v-26.535h492.49v26.535
	C502.245,458.701,495.118,465.829,486.324,465.829z"/>
<circle style="fill:#808080;" cx="124.386" cy="440.354" r="63.684"/>
<path style="fill:#666666;" d="M143.491,484.934c-35.172,0-63.684-28.512-63.684-63.684c0-12.695,3.73-24.514,10.132-34.447
	c-17.583,11.335-29.237,31.076-29.237,53.552c0,35.172,28.512,63.684,63.684,63.684c22.476,0,42.217-11.654,53.552-29.237
	C168.006,481.204,156.188,484.934,143.491,484.934z"/>
<circle style="fill:#AFF078;" cx="124.386" cy="440.354" r="29.719"/>
<circle style="fill:#808080;" cx="374.877" cy="440.354" r="63.684"/>
<path style="fill:#4C4C4C;" d="M393.982,484.934c-35.172,0-63.684-28.512-63.684-63.684c0-12.695,3.73-24.514,10.132-34.447
	c-17.584,11.335-29.237,31.076-29.237,53.552c0,35.172,28.512,63.684,63.684,63.684c22.476,0,42.217-11.654,53.552-29.237
	C418.496,481.204,406.679,484.934,393.982,484.934z"/>
<circle style="fill:#AFF078;" cx="374.877" cy="440.354" r="29.719"/>
<g>
	<polygon style="fill:#FFFFFF;" points="384.076,245.057 336.667,292.466 336.667,307.327 398.936,245.057 	"/>
	<polygon style="fill:#FFFFFF;" points="408.135,245.057 340.205,312.987 370.631,312.987 413.087,270.531 413.087,245.057 	"/>
</g>
<g>
	<polygon style="fill:#AFF078;" points="75.562,7.961 90.761,54.739 139.946,54.739 100.154,83.648 115.354,130.426 75.562,101.516 
		35.771,130.426 50.97,83.648 11.178,54.739 60.364,54.739 	"/>
	<polygon style="fill:#AFF078;" points="231.95,7.961 247.149,54.739 296.333,54.739 256.542,83.648 271.742,130.426 
		231.95,101.516 192.159,130.426 207.357,83.648 167.566,54.739 216.751,54.739 	"/>
	<polygon style="fill:#AFF078;" points="388.338,7.961 403.537,54.739 452.721,54.739 412.93,83.648 428.129,130.426 
		388.338,101.516 348.547,130.426 363.745,83.648 323.954,54.739 373.138,54.739 	"/>
</g>
<path d="M486.324,330.5h-35.557v-94.995c0-13.168-10.714-23.882-23.882-23.882H315.085V155.9c0-4.397-3.563-7.961-7.961-7.961
	H124.386c-4.396,0-7.961,3.563-7.961,7.961c0,4.397,3.564,7.961,7.961,7.961h174.778v54.058c-0.115,0.537-0.177,1.093-0.177,1.665
	s0.063,1.127,0.177,1.665v194.163h-107.62c-10.151-27.243-36.422-46.702-67.158-46.702s-57.007,19.459-67.158,46.702H17.715V163.86
	h72.706c4.396,0,7.961-3.563,7.961-7.961c0-4.397-3.564-7.961-7.961-7.961H9.755c-4.396,0-7.961,3.563-7.961,7.961v267.473v26.535
	c0,13.168,10.713,23.882,23.882,23.882h35.372C73.081,496.492,96.951,512,124.386,512s51.305-15.508,63.338-38.21h65.092
	c4.397,0,7.961-3.563,7.961-7.961s-3.563-7.961-7.961-7.961h-58.959c1.414-5.607,2.174-11.473,2.174-17.513
	c0-3.058-0.214-6.064-0.588-9.022H303.82c-0.374,2.958-0.588,5.964-0.588,9.022c0,6.04,0.76,11.906,2.174,17.513h-15.441
	c-4.397,0-7.961,3.563-7.961,7.961s3.563,7.961,7.961,7.961h21.574c12.033,22.702,35.903,38.21,63.338,38.21
	c27.435,0,51.305-15.508,63.338-38.21h48.109c13.168,0,23.882-10.714,23.882-23.882v-26.535v-68.991
	C510.206,341.214,499.493,330.5,486.324,330.5z M25.676,457.868c-4.39,0-7.961-3.571-7.961-7.961v-18.575H53.33
	c-0.374,2.958-0.588,5.964-0.588,9.022c0,6.04,0.76,11.906,2.174,17.513H25.676z M124.386,496.079
	c-30.727,0-55.724-24.998-55.724-55.724s24.997-55.724,55.724-55.724s55.724,24.998,55.724,55.724S155.113,496.079,124.386,496.079z
	 M315.085,227.544h111.801c4.39,0,7.961,3.571,7.961,7.961v102.956c0,4.397,3.563,7.961,7.961,7.961h43.517
	c4.39,0,7.961,3.571,7.961,7.961v61.031h-52.25c-10.151-27.243-36.422-46.702-67.158-46.702c-24.956,0-46.96,12.833-59.792,32.238
	V227.544z M374.877,496.079c-30.725,0-55.724-24.998-55.724-55.724s24.998-55.724,55.724-55.724s55.724,24.998,55.724,55.724
	S405.603,496.079,374.877,496.079z M486.324,457.868h-41.976c1.414-5.607,2.174-11.473,2.174-17.513
	c0-3.058-0.214-6.064-0.588-9.022h48.351v18.575C494.285,454.298,490.714,457.868,486.324,457.868z"/>
<path d="M336.667,320.948h76.421c4.397,0,7.961-3.563,7.961-7.961v-67.93c0-4.397-3.563-7.961-7.961-7.961h-76.421
	c-4.397,0-7.961,3.563-7.961,7.961v67.93C328.706,317.384,332.27,320.948,336.667,320.948z M344.627,253.018h60.5v52.009h-60.5
	V253.018z"/>
<path d="M336.667,346.421h21.228c4.397,0,7.961-3.563,7.961-7.961s-3.563-7.961-7.961-7.961h-21.228
	c-4.397,0-7.961,3.563-7.961,7.961S332.27,346.421,336.667,346.421z"/>
<path d="M124.386,402.676c-20.777,0-37.68,16.903-37.68,37.68s16.903,37.68,37.68,37.68s37.68-16.903,37.68-37.68
	S145.163,402.676,124.386,402.676z M124.386,462.114c-11.998,0-21.759-9.761-21.759-21.759s9.761-21.759,21.759-21.759
	s21.759,9.761,21.759,21.759S136.384,462.114,124.386,462.114z"/>
<path d="M374.877,402.676c-20.777,0-37.68,16.903-37.68,37.68s16.903,37.68,37.68,37.68c20.777,0,37.68-16.903,37.68-37.68
	S395.655,402.676,374.877,402.676z M374.877,462.114c-11.998,0-21.759-9.761-21.759-21.759s9.761-21.759,21.759-21.759
	c11.998,0,21.759,9.761,21.759,21.759S386.875,462.114,374.877,462.114z"/>
<path d="M79.807,231.79c4.396,0,7.961-3.563,7.961-7.961c0-4.397-3.564-7.961-7.961-7.961h-38.21c-4.396,0-7.961,3.563-7.961,7.961
	v87.035c0,4.397,3.564,7.961,7.961,7.961s7.961-3.563,7.961-7.961v-34.496h21.759c4.396,0,7.961-3.563,7.961-7.961
	c0-4.397-3.564-7.961-7.961-7.961H49.557V231.79L79.807,231.79L79.807,231.79z"/>
<path d="M149.329,276.9v-53.07c0-4.397-3.564-7.961-7.961-7.961h-36.088c-4.396,0-7.961,3.563-7.961,7.961v87.035
	c0,4.397,3.564,7.961,7.961,7.961s7.961-3.563,7.961-7.961v-26.022c0.176,0.012,0.352,0.018,0.531,0.018h10.301l7.482,28.056
	c0.95,3.56,4.168,5.911,7.687,5.911c0.679,0,1.369-0.088,2.057-0.271c4.248-1.133,6.773-5.496,5.64-9.744l-6.388-23.953h0.818
	C145.766,284.86,149.329,281.296,149.329,276.9z M113.241,268.956v-37.167h20.167v37.149h-19.636
	C113.594,268.939,113.418,268.945,113.241,268.956z"/>
<path d="M209.298,231.79c4.396,0,7.961-3.563,7.961-7.961c0-4.397-3.564-7.961-7.961-7.961h-38.21c-4.396,0-7.961,3.563-7.961,7.961
	v87.035c0,4.397,3.564,7.961,7.961,7.961h38.21c4.396,0,7.961-3.563,7.961-7.961s-3.564-7.961-7.961-7.961h-30.25v-26.535h21.759
	c4.396,0,7.961-3.563,7.961-7.961c0-4.397-3.564-7.961-7.961-7.961h-21.759V231.79L209.298,231.79L209.298,231.79z"/>
<path d="M275.105,231.79c4.397,0,7.961-3.563,7.961-7.961c0-4.397-3.563-7.961-7.961-7.961h-38.21c-4.396,0-7.961,3.563-7.961,7.961
	v87.035c0,4.397,3.564,7.961,7.961,7.961h38.21c4.397,0,7.961-3.563,7.961-7.961s-3.563-7.961-7.961-7.961h-30.25v-26.535h21.759
	c4.397,0,7.961-3.563,7.961-7.961c0-4.397-3.563-7.961-7.961-7.961h-21.759V231.79L275.105,231.79L275.105,231.79z"/>
<path d="M6.499,61.178l35.112,25.511l-13.411,41.278c-1.066,3.28,0.102,6.874,2.892,8.9c2.789,2.026,6.568,2.027,9.357,0
	l35.112-25.51l35.112,25.51c1.395,1.014,3.037,1.521,4.679,1.521s3.284-0.507,4.679-1.521c2.79-2.026,3.958-5.62,2.892-8.9
	l-13.411-41.278l35.112-25.511c2.789-2.027,3.958-5.62,2.891-8.9c-1.066-3.281-4.122-5.501-7.571-5.501H96.546L83.133,5.501
	C82.067,2.22,79.01,0,75.562,0s-6.505,2.22-7.571,5.501L54.579,46.777H11.178c-3.448,0-6.505,2.22-7.571,5.501
	C2.542,55.558,3.709,59.151,6.499,61.178z M60.364,62.698c3.448,0,6.505-2.22,7.571-5.501l7.628-23.476l7.628,23.476
	c1.066,3.281,4.122,5.501,7.571,5.501h24.685l-19.971,14.51c-2.789,2.026-3.957,5.62-2.891,8.9l7.628,23.477l-19.97-14.509
	c-1.395-1.014-3.037-1.521-4.679-1.521c-1.642,0-3.284,0.507-4.679,1.521l-19.97,14.509l7.628-23.477
	c1.066-3.28-0.102-6.874-2.891-8.9l-19.975-14.51H60.364z"/>
<path d="M162.886,61.178l35.112,25.511l-13.411,41.278c-1.066,3.28,0.102,6.874,2.892,8.9c2.789,2.026,6.568,2.027,9.357,0
	l35.112-25.51l35.112,25.51c1.395,1.014,3.037,1.521,4.679,1.521c1.642,0,3.284-0.507,4.679-1.521c2.79-2.026,3.958-5.62,2.892-8.9
	L265.9,86.689l35.112-25.511c2.79-2.027,3.958-5.62,2.892-8.9c-1.066-3.281-4.122-5.501-7.571-5.501h-43.401L239.521,5.501
	C238.455,2.22,235.398,0,231.95,0s-6.505,2.22-7.571,5.501l-13.412,41.277h-43.401c-3.448,0-6.505,2.22-7.571,5.501
	C158.93,55.558,160.097,59.151,162.886,61.178z M216.75,62.698c3.448,0,6.505-2.22,7.571-5.501l7.628-23.476l7.628,23.476
	c1.066,3.281,4.122,5.501,7.571,5.501h24.685l-19.971,14.51c-2.789,2.026-3.957,5.62-2.891,8.9l7.628,23.477l-19.97-14.509
	c-1.395-1.014-3.037-1.521-4.679-1.521s-3.284,0.507-4.679,1.521l-19.97,14.509l7.628-23.477c1.066-3.28-0.102-6.874-2.891-8.9
	l-19.971-14.51H216.75z"/>
<path d="M319.275,61.178l35.112,25.511l-13.412,41.278c-1.066,3.28,0.102,6.874,2.892,8.9c2.79,2.027,6.568,2.027,9.357,0
	l35.112-25.51l35.112,25.51c1.395,1.014,3.037,1.521,4.679,1.521s3.284-0.507,4.679-1.521c2.79-2.026,3.958-5.62,2.892-8.9
	l-13.412-41.278L457.4,61.178c2.79-2.027,3.958-5.62,2.892-8.9c-1.066-3.281-4.122-5.501-7.571-5.501h-43.402L395.909,5.501
	C394.843,2.22,391.786,0,388.338,0s-6.505,2.22-7.571,5.501l-13.412,41.277h-43.402c-3.448,0-6.505,2.22-7.571,5.501
	C315.317,55.558,316.485,59.151,319.275,61.178z M373.139,62.698c3.448,0,6.505-2.22,7.571-5.501l7.628-23.476l7.628,23.476
	c1.066,3.281,4.122,5.501,7.571,5.501h24.686l-19.97,14.51c-2.79,2.026-3.958,5.62-2.892,8.9l7.628,23.477l-19.97-14.509
	c-1.395-1.014-3.037-1.521-4.679-1.521s-3.284,0.507-4.679,1.521l-19.97,14.509l7.628-23.477c1.066-3.28-0.102-6.874-2.892-8.9
	l-19.97-14.51H373.139z"/>
<g>
</g>
<g>
</g>
<g>
</g>
<g>
</g>
<g>
</g>
<g>
</g>
<g>
</g>
<g>
</g>
<g>
</g>
<g>
</g>
<g>
</g>
<g>
</g>
<g>
</g>
<g>
</g>
<g>
</g>
</svg>
