<?xml version="1.0" encoding="iso-8859-1"?>
<!-- Generator: Adobe Illustrator 19.0.0, SVG Export Plug-In . SVG Version: 6.00 Build 0)  -->
<svg version="1.1" id="Layer_1" xmlns="http://www.w3.org/2000/svg" xmlns:xlink="http://www.w3.org/1999/xlink" x="0px" y="0px"
	 viewBox="0 0 503.467 503.467" style="enable-background:new 0 0 503.467 503.467;" xml:space="preserve">
<g transform="translate(1 9)">
	<polyline style="fill:#AAB1BA;" points="188.44,225.667 189.293,225.667 148.333,421.933 107.373,225.667 109.08,225.667 	"/>
	<path style="fill:#80D6FA;" d="M54.467,447.533L3.267,439V268.333c0-34.133,42.667-51.2,102.4-51.2l1.707,8.533l40.96,196.267
		l40.96-196.267l1.707-8.533c42.667,0,76.8,8.533,93.013,26.453l0,0c2.56,2.56,3.413,5.12,5.12,7.68c0,0,4.267,7.68,4.267,37.547
		l0,0c-5.12-1.707-11.093-2.56-17.067-2.56h-17.067c-25.6,0-42.667,17.067-42.667,42.667v8.533c0,34.133,17.067,59.733,51.2,59.733
		c8.533,0,16.213-1.707,23.04-5.12l2.56,5.12v25.6l-25.6,17.067l-25.6-17.067c-42.667,0-51.2,17.92-51.2,34.133H54.467V447.533z
		 M148.333,234.2c5.12,0,8.533-3.413,8.533-8.533c0-5.12-3.413-8.533-8.533-8.533s-8.533,3.413-8.533,8.533
		C139.8,230.787,143.213,234.2,148.333,234.2z"/>
	<path style="fill:#FFD0A1;" d="M412.867,123.267V157.4c0,25.6-17.067,59.733-42.667,59.733S327.533,183,327.533,157.4v-34.133
		c0,0,25.6,0,34.133-25.6C370.2,123.267,412.867,123.267,412.867,123.267z M216.6,89.133V106.2c0,4.267-3.413,8.533-8.533,8.533
		c0,17.067-8.533,34.133-8.533,34.133C191,165.933,181.613,183,148.333,183s-42.667-17.067-51.2-34.133
		c0,0-8.533-17.067-8.533-34.133c-4.267,0-8.533-4.267-8.533-8.533V89.133c0-4.267,4.267-8.533,8.533-8.533v-8.533
		c0-23.893,18.773-42.667,42.667-42.667H165.4c23.893,0,42.667,18.773,42.667,42.667V80.6C213.187,80.6,216.6,84.867,216.6,89.133z
		 M319,328.067v8.533c0,25.6-9.387,46.08-28.16,54.613c-6.827,3.413-14.507,5.12-23.04,5.12c-34.133,0-51.2-25.6-51.2-59.733v-8.533
		c0-25.6,17.067-42.667,42.667-42.667h17.067c5.973,0,11.947,0.853,17.067,2.56C309.613,293.933,319,308.44,319,328.067z"/>
	<path style="fill:#FFE079;" d="M344.6,456.067H191c0-16.213,8.533-34.133,51.2-34.133L267.8,439l25.6-17.067
		C336.067,421.933,344.6,439.853,344.6,456.067"/>
	<path style="fill:#AE938D;" d="M412.867,157.4v-34.133c0,0-42.667,0-51.2-25.6c-8.533,25.6-34.133,25.6-34.133,25.6V157.4
		c0,25.6,17.067,59.733,42.667,59.733S412.867,183,412.867,157.4 M438.467,97.667l12.8,141.653v0.853
		c-11.093-3.413-23.893-5.973-38.4-5.973c0,0,0,51.2-42.667,51.2s-42.667-51.2-42.667-51.2c-0.853,0-22.187,0-39.253,6.827v-0.853
		l13.653-142.507c2.56-25.6,34.133-51.2,59.733-51.2h17.067C404.333,46.467,436.76,72.067,438.467,97.667"/>
	<path style="fill:#C49AE9;" d="M370.2,285.4c42.667,0,42.667-51.2,42.667-51.2c14.507,0,27.307,1.707,38.4,5.973
		c32.427,11.093,46.933,36.693,46.933,62.293V439l-51.2,8.533v8.533H344.6c0-16.213-8.533-34.133-51.2-34.133v-25.6l-2.56-5.12
		C309.613,382.68,319,361.347,319,336.6v-8.533c0-19.627-9.387-34.133-25.6-40.107l0,0c0-29.867-4.267-37.547-4.267-37.547
		c-1.707-2.56-3.413-5.12-5.12-7.68l0.853-0.853c0.853-0.853,2.56-0.853,3.413-1.707c16.213-6.827,37.547-6.827,39.253-6.827
		C327.533,234.2,327.533,285.4,370.2,285.4"/>
</g>
<path style="fill:#51565F;" d="M448,469.333L448,469.333c-2.56,0-4.267-1.707-4.267-4.267l0,0l0.853-136.533
	c0-2.56,1.707-4.267,4.267-4.267l0,0c2.56,0,4.267,1.707,4.267,4.267l0,0l-0.853,136.533
	C452.267,467.627,450.56,469.333,448,469.333z M345.6,469.333c-2.56,0-4.267-1.707-4.267-4.267c0-7.68,0-29.867-45.227-29.867
	l-24.747,16.213c-1.707,0.853-3.413,0.853-5.12,0L241.493,435.2c-45.227,0-45.227,22.187-45.227,29.867
	c0,2.56-1.707,4.267-4.267,4.267s-4.267-1.707-4.267-4.267c0-25.6,18.773-38.4,55.467-38.4c0.853,0,1.707,0,2.56,0.853l23.04,15.36
	l23.04-15.36c0.853-0.853,1.707-0.853,2.56-0.853c36.693,0,55.467,12.8,55.467,38.4C349.867,467.627,348.16,469.333,345.6,469.333z
	 M55.467,469.333c-2.56,0-4.267-1.707-4.267-4.267V328.533c0-2.56,1.707-4.267,4.267-4.267c2.56,0,4.267,1.707,4.267,4.267v136.533
	C59.733,467.627,58.027,469.333,55.467,469.333z M499.2,452.267c-2.56,0-4.267-1.707-4.267-4.267V311.467
	c0-16.213-5.973-30.72-17.067-41.813C464.213,256,443.733,248.32,418.133,248.32c-1.707,18.773-11.093,48.64-42.667,51.2v46.933
	c0,2.56-1.707,4.267-4.267,4.267s-4.267-1.707-4.267-4.267V299.52c-33.28-2.56-42.667-36.693-42.667-55.467
	c0-2.56,1.707-4.267,4.267-4.267l0,0c2.56,0,4.267,1.707,4.267,4.267c0,1.707,0.853,46.933,38.4,46.933s38.4-45.227,38.4-46.933
	c0-2.56,1.707-4.267,4.267-4.267c29.867,0,53.76,8.533,69.973,23.893c12.8,12.8,19.627,29.867,19.627,47.787V448
	C503.467,450.56,501.76,452.267,499.2,452.267z M4.267,452.267C1.707,452.267,0,450.56,0,448V277.333
	C0,266.24,4.267,256,12.8,247.467c17.067-17.067,49.493-25.6,93.867-25.6c2.56,0,4.267,0.853,5.12,3.413l42.667,204.8
	c0.853,2.56-0.853,4.267-3.413,5.12c-2.56,0.853-4.267-0.853-5.12-3.413L104.107,230.4c-40.107,0-69.973,8.533-84.48,23.04
	c-6.827,6.827-10.24,14.507-10.24,23.893V448C8.533,450.56,6.827,452.267,4.267,452.267z M268.8,409.6
	c-34.133,0-55.467-24.747-55.467-64v-8.533c0-28.16,18.773-46.933,46.933-46.933h17.067c28.16,0,46.933,18.773,46.933,46.933v8.533
	C324.267,384.853,302.933,409.6,268.8,409.6z M260.267,298.667c-23.04,0-38.4,15.36-38.4,38.4v8.533
	c0,34.987,17.92,55.467,46.933,55.467s46.933-20.48,46.933-55.467v-8.533c0-23.04-15.36-38.4-38.4-38.4H260.267z M149.333,315.733
	c-2.56,0-4.267-1.707-4.267-4.267v-64.853c-5.12-1.707-8.533-6.827-8.533-11.947c0-6.827,5.973-12.8,12.8-12.8
	c6.827,0,12.8,5.973,12.8,12.8c0,5.973-3.413,10.24-8.533,11.947v64.853C153.6,314.027,151.893,315.733,149.333,315.733z
	 M149.333,230.4c-2.56,0-4.267,1.707-4.267,4.267c0,2.56,1.707,4.267,4.267,4.267s4.267-1.707,4.267-4.267
	C153.6,232.107,151.893,230.4,149.333,230.4z M183.467,273.067C183.467,273.067,182.613,273.067,183.467,273.067
	c-3.413-0.853-4.267-2.56-4.267-5.12l8.533-42.667c0.853-2.56,2.56-3.413,5.12-3.413c52.907,0,88.747,12.8,101.547,35.84
	c0.853,1.707,0,4.267-1.707,5.973c-1.707,0.853-4.267,0-5.973-1.707c-11.093-19.627-43.52-30.72-90.453-31.573l-7.68,39.253
	C186.88,271.36,185.173,273.067,183.467,273.067z M371.2,230.4c-29.013,0-46.933-37.547-46.933-64v-34.133
	c0-2.56,1.707-4.267,4.267-4.267c0.853,0,23.04,0,29.867-23.04c0.853-3.413,6.827-3.413,7.68,0
	c7.68,22.187,46.933,23.04,46.933,23.04c2.56,0,4.267,1.707,4.267,4.267V166.4C418.133,192.853,400.213,230.4,371.2,230.4z
	 M332.8,136.533V166.4c0,23.04,15.36,55.467,38.4,55.467s38.4-32.427,38.4-55.467v-29.867c-10.24-0.853-34.987-4.267-46.933-19.627
	C354.987,129.707,342.187,134.827,332.8,136.533z M448,221.867c-2.56,0-4.267-1.707-4.267-4.267L435.2,106.667
	c-1.707-22.187-31.573-46.933-55.467-46.933h-17.067c-24.747,0-53.76,24.747-55.467,46.933L298.667,217.6
	c0,2.56-2.56,4.267-4.267,4.267c-2.56,0-4.267-2.56-4.267-4.267l8.533-110.933c2.56-26.453,34.987-55.467,64-55.467h17.067
	c26.453,0,61.44,25.6,64,55.467l8.533,110.933C452.267,219.307,450.56,221.867,448,221.867L448,221.867z M149.333,196.267
	c-36.693,0-46.933-21.333-54.613-36.693c0-0.853-7.68-16.213-8.533-32.427c-5.12-1.707-8.533-6.827-8.533-11.947V98.134
	c0-5.973,3.413-10.24,8.533-11.947v-5.12c0-25.6,21.333-46.933,46.933-46.933h34.133c25.6,0,46.933,21.333,46.933,46.933v5.12
	c5.12,1.707,8.533,6.827,8.533,11.947V115.2c0,5.973-3.413,10.24-8.533,11.947c-0.853,16.213-8.533,31.573-8.533,32.427
	C196.267,174.933,186.027,196.267,149.333,196.267z M132.267,42.667c-21.333,0-38.4,17.067-38.4,38.4V89.6
	c0,2.56-1.707,4.267-4.267,4.267c-2.56,0-4.267,1.707-4.267,4.267V115.2c0,2.56,1.707,4.267,4.267,4.267
	c2.56,0,4.267,1.707,4.267,4.267c0,16.213,7.68,32.427,7.68,32.427c9.387,18.773,17.92,31.573,47.787,31.573
	s38.4-12.8,47.787-31.573c0,0,7.68-16.213,7.68-32.427c0-2.56,1.707-4.267,4.267-4.267s4.267-1.707,4.267-4.267V98.133
	c0-2.56-1.707-4.267-4.267-4.267S204.8,92.16,204.8,89.6v-8.533c0-21.333-17.067-38.4-38.4-38.4H132.267z M174.933,110.933H166.4
	c-2.56,0-4.267-1.707-4.267-4.267s1.707-4.267,4.267-4.267h8.533c2.56,0,4.267,1.707,4.267,4.267S177.493,110.933,174.933,110.933z
	 M132.267,110.933h-8.533c-2.56,0-4.267-1.707-4.267-4.267s1.707-4.267,4.267-4.267h8.533c2.56,0,4.267,1.707,4.267,4.267
	S134.827,110.933,132.267,110.933z"/>
<g>
</g>
<g>
</g>
<g>
</g>
<g>
</g>
<g>
</g>
<g>
</g>
<g>
</g>
<g>
</g>
<g>
</g>
<g>
</g>
<g>
</g>
<g>
</g>
<g>
</g>
<g>
</g>
<g>
</g>
</svg>
