<?xml version="1.0" encoding="iso-8859-1"?>
<!-- Generator: Adobe Illustrator 19.0.0, SVG Export Plug-In . SVG Version: 6.00 Build 0)  -->
<svg version="1.1" id="Layer_1" xmlns="http://www.w3.org/2000/svg" xmlns:xlink="http://www.w3.org/1999/xlink" x="0px" y="0px"
	 viewBox="0 0 512 512" style="enable-background:new 0 0 512 512;" xml:space="preserve">
<path style="fill:#FF6243;" d="M471.464,495.462l-65.556,12.743c-27.113,5.27-53.454-12.497-58.724-39.61L270.729,75.261
	c-5.27-27.113,12.497-53.454,39.61-58.724l65.555-12.742c27.113-5.27,53.454,12.497,58.724,39.61l76.456,393.334
	C516.344,463.85,498.577,490.191,471.464,495.462z"/>
<path style="fill:#FF3501;" d="M375.894,3.795l-32.778,6.371l95.57,491.667l32.778-6.371c27.113-5.27,44.88-31.612,39.61-58.724
	L434.618,43.404C429.348,16.292,403.006-1.475,375.894,3.795z"/>
<path style="fill:#DBE9FD;" d="M400.459,305.166c-9.048,1.759-17.814-4.149-19.575-13.203l-31.856-163.889
	c-1.76-9.053,4.155-17.815,13.203-19.575c9.048-1.759,17.814,4.149,19.575,13.203l31.856,163.889
	C415.421,294.645,409.506,303.407,400.459,305.166z"/>
<path style="fill:#C5DCFD;" d="M413.661,285.592l-31.856-163.889c-1.76-9.053-10.526-14.962-19.575-13.203l38.229,196.667
	C409.506,303.407,415.421,294.645,413.661,285.592z"/>
<circle style="fill:#DBE9FD;" cx="416.39" cy="387.105" r="16.696"/>
<path style="fill:#C5DCFD;" d="M413.206,370.721l-0.006,0.002l6.371,32.777h0.006c9.051-1.76,14.963-10.523,13.203-19.575
	C431.022,374.872,422.258,368.961,413.206,370.721z"/>
<path style="fill:#9DCA40;" d="M250.435,509.13h-66.783c-27.619,0-50.087-22.468-50.087-50.087V58.347
	c0-27.619,22.468-50.087,50.087-50.087h66.783c27.619,0,50.087,22.468,50.087,50.087v400.696
	C300.522,486.663,278.054,509.13,250.435,509.13z"/>
<path style="fill:#8EB043;" d="M250.435,8.26h-33.391v500.87h33.391c27.619,0,50.087-22.468,50.087-50.087V58.347
	C300.522,30.728,278.054,8.26,250.435,8.26z"/>
<path style="fill:#DBE9FD;" d="M217.043,308.782c-9.217,0-16.696-7.473-16.696-16.696V125.13c0-9.223,7.479-16.696,16.696-16.696
	s16.696,7.473,16.696,16.696v166.956C233.739,301.309,226.261,308.782,217.043,308.782z"/>
<path style="fill:#C5DCFD;" d="M233.739,292.086V125.13c0-9.223-7.479-16.696-16.696-16.696v200.348
	C226.261,308.782,233.739,301.309,233.739,292.086z"/>
<circle style="fill:#DBE9FD;" cx="217.043" cy="392.258" r="16.696"/>
<path style="fill:#C5DCFD;" d="M217.049,375.565l-0.006,0.001v33.39l0.006,0.001c9.22,0,16.696-7.475,16.696-16.696
	C233.745,383.041,226.269,375.565,217.049,375.565z"/>
<path style="fill:#6BBAE2;" d="M116.87,509.13H50.087C22.468,509.13,0,486.662,0,459.043V58.347C0,30.728,22.468,8.26,50.087,8.26
	h66.783c27.619,0,50.087,22.468,50.087,50.087v400.696C166.957,486.663,144.489,509.13,116.87,509.13z"/>
<path style="fill:#60AED5;" d="M116.87,8.26H83.478v500.87h33.391c27.619,0,50.087-22.468,50.087-50.087V58.347
	C166.957,30.728,144.489,8.26,116.87,8.26z"/>
<path style="fill:#DBE9FD;" d="M83.478,308.782c-9.217,0-16.696-7.473-16.696-16.696V125.13c0-9.223,7.479-16.696,16.696-16.696
	s16.696,7.473,16.696,16.696v166.956C100.174,301.309,92.695,308.782,83.478,308.782z"/>
<path style="fill:#C5DCFD;" d="M100.174,292.086V125.13c0-9.223-7.479-16.696-16.696-16.696v200.348
	C92.695,308.782,100.174,301.309,100.174,292.086z"/>
<circle style="fill:#DBE9FD;" cx="83.478" cy="392.258" r="16.696"/>
<path style="fill:#C5DCFD;" d="M83.484,375.565l-0.006,0.001v33.39l0.006,0.001c9.22,0,16.696-7.475,16.696-16.696
	C100.179,383.041,92.704,375.565,83.484,375.565z"/>
<g>
</g>
<g>
</g>
<g>
</g>
<g>
</g>
<g>
</g>
<g>
</g>
<g>
</g>
<g>
</g>
<g>
</g>
<g>
</g>
<g>
</g>
<g>
</g>
<g>
</g>
<g>
</g>
<g>
</g>
</svg>
