<?xml version="1.0" encoding="utf-8"?>
<!-- Generator: Adobe Illustrator 16.0.0, SVG Export Plug-In . SVG Version: 6.00 Build 0)  -->
<!DOCTYPE svg PUBLIC "-//W3C//DTD SVG 1.1//EN" "http://www.w3.org/Graphics/SVG/1.1/DTD/svg11.dtd">
<svg xmlns="http://www.w3.org/2000/svg" xmlns:xlink="http://www.w3.org/1999/xlink" version="1.1" id="Layer_1" x="0px" y="0px" width="512" height="512" viewBox="0 0 512 512" enable-background="new 0 0 512 512" xml:space="preserve">
<g id="external_hard_disk">
	<g>
		<path fill="#8CC153" d="M352,490.656c0,11.781-9.547,21.344-21.328,21.344h-256c-11.781,0-21.344-9.562-21.344-21.344V202.664    c0-11.781,9.562-21.328,21.344-21.328h256c11.781,0,21.328,9.547,21.328,21.328V490.656z"/>
	</g>
	<g>
		<path fill="#656D78" d="M245.328,192c0,5.891-4.766,10.664-10.656,10.664h-64c-5.891,0-10.672-4.773-10.672-10.664v-64    c0-5.891,4.781-10.664,10.672-10.664h64c5.891,0,10.656,4.773,10.656,10.664V192z"/>
	</g>
	<g>
		<path fill="#A0D468" d="M352,469.344c0,11.781-9.547,21.312-21.328,21.312h-256c-11.781,0-21.344-9.531-21.344-21.312V181.336    c0-11.789,9.562-21.336,21.344-21.336h256c11.781,0,21.328,9.547,21.328,21.336V469.344z"/>
	</g>
	<path fill="#E6E9ED" d="M202.672,405.344c-52.938,0-96-43.078-96-96c0-52.945,43.062-96.008,96-96.008   c52.922,0,96,43.062,96,96.008C298.672,362.266,255.594,405.344,202.672,405.344z"/>
	<path fill="#CCD1D9" d="M202.672,202.664C143.75,202.664,96,250.422,96,309.344C96,368.25,143.75,416,202.672,416   c58.906,0,106.656-47.75,106.656-106.656C309.328,250.422,261.578,202.664,202.672,202.664z M263,369.672   c-16.109,16.109-37.547,24.984-60.328,24.984c-22.797,0-44.234-8.875-60.344-24.984c-16.125-16.109-25-37.547-25-60.328   c0-22.812,8.875-44.234,25-60.352C158.438,232.875,179.875,224,202.672,224c22.781,0,44.219,8.875,60.328,24.992   c16.125,16.117,25,37.539,25,60.352C288,332.125,279.125,353.562,263,369.672z"/>
	<path fill="#A0D468" d="M202.672,341.344c-17.656,0-32-14.375-32-32c0-17.656,14.344-32,32-32c17.641,0,32,14.344,32,32   C234.672,326.969,220.312,341.344,202.672,341.344z"/>
	<path fill="#8CC153" d="M202.672,266.664c-23.562,0-42.672,19.102-42.672,42.68C160,332.906,179.109,352,202.672,352   s42.656-19.094,42.656-42.656C245.328,285.766,226.234,266.664,202.672,266.664z M202.672,330.656   c-11.766,0-21.344-9.562-21.344-21.312c0-11.781,9.578-21.344,21.344-21.344c11.75,0,21.328,9.562,21.328,21.344   C224,321.094,214.422,330.656,202.672,330.656z"/>
	<path fill="#434A54" d="M213.328,309.344c0,5.875-4.766,10.656-10.656,10.656S192,315.219,192,309.344   c0-5.906,4.781-10.688,10.672-10.688S213.328,303.438,213.328,309.344z"/>
	<path fill="#434A54" d="M309.328,0C244.531,0,192,52.531,192,117.336h21.328c0-25.648,9.984-49.75,28.125-67.883   c18.125-18.133,42.234-28.117,67.875-28.117s49.75,9.984,67.891,28.117c18.125,18.133,28.109,42.234,28.109,67.883v147.328h21.344   V117.336C426.672,52.531,374.141,0,309.328,0z"/>
	<g>
		<rect x="384" y="274.031" fill="#E6E9ED" width="64" height="67.312"/>
	</g>
	<g>
		<path fill="#656D78" d="M458.672,298.656h-85.344V224c0-5.891,4.781-10.664,10.672-10.664h64c5.891,0,10.672,4.773,10.672,10.664    V298.656z"/>
	</g>
	<g>
		<path fill="#8CC153" d="M117.328,437.344c-5.891,0-10.656,4.766-10.656,10.656v42.656H128V448    C128,442.109,123.219,437.344,117.328,437.344z"/>
		<path fill="#8CC153" d="M160,437.344c-5.891,0-10.672,4.766-10.672,10.656v42.656h21.344V448    C170.672,442.109,165.891,437.344,160,437.344z"/>
		<path fill="#8CC153" d="M202.672,437.344c-5.891,0-10.672,4.766-10.672,10.656v42.656h21.328V448    C213.328,442.109,208.562,437.344,202.672,437.344z"/>
		<path fill="#8CC153" d="M245.328,437.344c-5.891,0-10.656,4.766-10.656,10.656v42.656H256V448    C256,442.109,251.219,437.344,245.328,437.344z"/>
		<path fill="#8CC153" d="M288,437.344c-5.891,0-10.672,4.766-10.672,10.656v42.656h21.344V448    C298.672,442.109,293.891,437.344,288,437.344z"/>
	</g>
</g>
</svg>
