<?xml version="1.0" encoding="iso-8859-1"?>
<!-- Generator: Adobe Illustrator 19.0.0, SVG Export Plug-In . SVG Version: 6.00 Build 0)  -->
<svg version="1.1" id="Layer_1" xmlns="http://www.w3.org/2000/svg" xmlns:xlink="http://www.w3.org/1999/xlink" x="0px" y="0px"
	 viewBox="0 0 448.36 448.36" style="enable-background:new 0 0 448.36 448.36;" xml:space="preserve">
<g>
	<polygon style="fill:#B3B3B3;" points="125.22,334.46 90.02,334.46 90.02,349.46 160.46,349.46 160.46,341.96 160.46,334.46 	"/>
	<polygon style="fill:#666666;" points="160.46,299.76 160.46,334.46 125.22,334.46 132.95,299.76 	"/>
	<rect x="147.965" y="334.46" style="fill:#808080;" width="12.495" height="15"/>
	<path style="fill:#71B7EA;" d="M448.36,384.03c0,6.59-2.52,12.59-6.63,17.09c-4.64,5.07-11.3,8.25-18.71,8.25H167.44
		c-7,0-13.33-2.84-17.91-7.42c-4.59-4.58-7.42-10.92-7.42-17.92L448.36,384.03L448.36,384.03z"/>
	<path style="fill:#88C5FC;" d="M417.67,217.84H172.8c-6.82,0-12.34,5.53-12.34,12.35v153.84h269.55V230.19
		C430.01,223.37,424.48,217.84,417.67,217.84z M407.01,361.03H183.46V240.84h223.55V361.03z"/>
	<path style="fill:#B3B3B3;" d="M160.46,264.99v34.77H17.2c-9.5,0-17.2-7.7-17.2-17.2v-17.57L160.46,264.99L160.46,264.99z"/>
	<polygon style="fill:#F9A18A;" points="348.08,64.99 348.08,146.99 260.08,146.99 260.08,88.99 260.08,64.99 	"/>
	<rect x="183.46" y="240.84" style="fill:#E6E6E6;" width="223.55" height="120.19"/>
	<path style="fill:#AFDAF9;" d="M304.08,174.99v42.85H172.8c-5.66,0-10.42,3.81-11.88,9c-0.3,1.06-0.46,2.19-0.46,3.35v34.8H0
		v-158.8c0-9.5,7.7-17.2,17.2-17.2h242.88v70.76c0,8.42,6.82,15.24,15.24,15.24H304.08z"/>
	<polygon points="160.46,349.46 160.46,341.96 160.46,334.46 	"/>
	<path style="fill:#666666;" d="M342.35,42.33c-2.61-2.09-5.92-3.34-9.52-3.34h-57.51c-8.42,0-15.24,6.83-15.24,15.25v105.51
		c0,7.77,5.8,14.17,13.31,15.11c0.63,0.09,1.28,0.13,1.93,0.13h57.51c8.42,0,15.25-6.82,15.25-15.24V54.24
		C348.08,49.42,345.84,45.12,342.35,42.33z M342.98,146.99h-77.8v-82h77.8L342.98,146.99L342.98,146.99z"/>
	<g>
		<polygon style="opacity:0.23;fill:#F2F2F2;enable-background:new    ;" points="153.73,264.99 160.46,252.05 160.46,299.76 
			135.63,299.76 		"/>
		<path style="opacity:0.3;fill:#F2F2F2;enable-background:new    ;" d="M304.08,174.99v42.85H178.26l67.06-128.85h14.76v70.76
			c0,8.42,6.82,15.24,15.24,15.24H304.08z"/>
		<path style="opacity:0.3;fill:#F2F2F2;enable-background:new    ;" d="M72.69,88.99l-12.84,24.66l-8.54,16.43l-18.76,36.03
			l-8.95,17.21L6.31,216.55L0,228.67V106.19c0-9.5,7.7-17.2,17.2-17.2C17.2,88.99,72.69,88.99,72.69,88.99z"/>
	</g>
	<path style="opacity:0.23;fill:#F2F2F2;enable-background:new    ;" d="M430.01,230.19v153.84H290.45l11.97-23l62.54-120.19
		l11.97-23h40.74C424.48,217.84,430.01,223.37,430.01,230.19z"/>
	<path style="opacity:0.23;fill:#F2F2F2;enable-background:new    ;" d="M348.08,54.24v105.51c0,8.42-6.83,15.24-15.25,15.24h-57.51
		c-0.65,0-1.3-0.04-1.93-0.13l3.03-5.83l11.47-22.04l42.67-82l8.4-16.15l3.39-6.51C345.84,45.12,348.08,49.42,348.08,54.24z"/>
	<polygon style="opacity:0.23;fill:#F2F2F2;enable-background:new    ;" points="317.93,217.84 305.96,240.84 243.42,361.03 
		231.45,384.03 196.45,384.03 208.42,361.03 270.96,240.84 282.93,217.84 	"/>
	<g>
		<path style="opacity:0.23;fill:#F2F2F2;enable-background:new    ;" d="M448.36,384.03c0,6.59-2.52,12.59-6.63,17.09h-70.65
			l8.89-17.09H448.36z"/>
	</g>
	<path style="opacity:0.24;fill:#808080;enable-background:new    ;" d="M275.32,174.99c-8.42,0-15.24-6.82-15.24-15.24V88.99h-5.9
		h-5.1v80.76c0,7.77,5.8,14.17,13.31,15.11c0.63,0.09,1.28,0.13,1.93,0.13h39.76v-10H275.32z"/>
	<path style="opacity:0.24;fill:#808080;enable-background:new    ;" d="M156.8,226.84c-6.82,0-12.34,5.53-12.34,12.35v60.57h16
		v-69.57c0-1.16,0.16-2.29,0.46-3.35H156.8z"/>
</g>
<g>
</g>
<g>
</g>
<g>
</g>
<g>
</g>
<g>
</g>
<g>
</g>
<g>
</g>
<g>
</g>
<g>
</g>
<g>
</g>
<g>
</g>
<g>
</g>
<g>
</g>
<g>
</g>
<g>
</g>
</svg>
