<?xml version="1.0" encoding="iso-8859-1"?>
<!-- Generator: Adobe Illustrator 19.0.0, SVG Export Plug-In . SVG Version: 6.00 Build 0)  -->
<svg version="1.1" id="Layer_1" xmlns="http://www.w3.org/2000/svg" xmlns:xlink="http://www.w3.org/1999/xlink" x="0px" y="0px"
	 viewBox="0 0 512 512" style="enable-background:new 0 0 512 512;" xml:space="preserve">
<path style="fill:#8CCFDE;" d="M0,360.1V151.9c0-43.331,35.126-78.456,78.456-78.456h355.088c43.329,0,78.456,35.126,78.456,78.456
	v208.2c0,43.329-35.126,78.456-78.456,78.456H78.456C35.126,438.556,0,403.43,0,360.1z"/>
<path style="fill:#0069A3;" d="M78.456,404.758c-24.623,0-44.658-20.033-44.658-44.658V151.9c0-24.624,20.033-44.658,44.658-44.658
	h355.088c24.623,0,44.658,20.033,44.658,44.658v208.2c0,24.624-20.033,44.658-44.658,44.658H78.456z"/>
<rect y="203.804" style="fill:#F5DF5D;" width="512" height="104.403"/>
<path style="opacity:0.2;enable-background:new    ;" d="M448.618,423.482H93.529c-43.329,0-78.455-35.126-78.455-78.456V136.827
	c0-17.822,5.952-34.247,15.962-47.42C12.182,103.736,0,126.391,0,151.9v208.2c0,43.329,35.126,78.456,78.456,78.456h355.088
	c25.509,0,48.164-12.181,62.493-31.036C482.865,417.531,466.439,423.482,448.618,423.482z"/>
<circle style="opacity:0.2;enable-background:new    ;" cx="245.331" cy="266.568" r="147.688"/>
<circle style="fill:#FFFFFF;" cx="255.899" cy="256" r="147.688"/>
<path style="opacity:0.2;enable-background:new    ;" d="M266.924,392.658c-81.566,0-147.688-66.122-147.688-147.688
	c0-37.977,14.34-72.602,37.894-98.769c-30.031,27.033-48.919,66.205-48.919,109.793c0,81.566,66.122,147.688,147.688,147.688
	c43.587,0,82.76-18.888,109.794-48.919C339.527,378.319,304.902,392.658,266.924,392.658z"/>
<g>
	<path style="fill:#7E858B;" d="M143.982,225.54c0-3.343,2.578-5.92,5.92-5.92h23.873c8.403,0,14.993,2.483,19.29,6.685
		c3.534,3.629,5.54,8.594,5.54,14.419v0.19c0,10.695-6.208,17.189-15.184,19.958l12.796,16.139c1.146,1.432,1.91,2.675,1.91,4.488
		c0,3.247-2.77,5.443-5.634,5.443c-2.675,0-4.393-1.242-5.73-3.055l-16.234-20.723h-14.801v17.954c0,3.247-2.579,5.825-5.826,5.825
		c-3.343,0-5.92-2.579-5.92-5.825V225.54H143.982z M172.917,252.755c8.403,0,13.751-4.393,13.751-11.173v-0.19
		c0-7.162-5.157-11.078-13.847-11.078h-17.093v22.441H172.917z"/>
	<path style="fill:#7E858B;" d="M209.206,278.826l24.828-55.387c1.337-2.96,3.725-4.775,7.066-4.775h0.573
		c3.343,0,5.634,1.815,6.971,4.775l24.828,55.387c0.478,0.86,0.669,1.719,0.669,2.483c0,3.151-2.387,5.634-5.538,5.634
		c-2.77,0-4.68-1.623-5.73-4.107l-5.444-12.51h-32.469l-5.634,12.892c-0.955,2.387-2.96,3.725-5.443,3.725
		c-3.057,0-5.444-2.387-5.444-5.443C208.441,280.641,208.729,279.781,209.206,278.826z M252.942,259.918l-11.746-27.025
		l-11.746,27.025H252.942L252.942,259.918z"/>
	<path style="fill:#7E858B;" d="M276.151,227.163c-0.286-0.668-0.478-1.528-0.478-2.292c0-3.247,2.77-5.73,6.017-5.73
		c2.865,0,5.061,1.815,5.825,4.297l15.375,45.934l15.088-45.743c0.955-2.769,2.961-4.679,5.921-4.679h0.86
		c2.961,0,5.061,1.91,5.92,4.679l15.088,45.743l15.376-46.028c0.86-2.387,2.865-4.202,5.729-4.202c3.152,0,5.826,2.483,5.826,5.634
		c0,0.764-0.286,1.719-0.573,2.387l-19.768,55.388c-1.05,2.96-3.247,4.87-6.112,4.87h-1.146c-2.865,0-4.966-1.814-6.016-4.87
		l-14.898-43.642l-14.897,43.642c-1.051,3.055-3.247,4.87-6.112,4.87h-1.147c-2.864,0-4.965-1.814-6.112-4.87L276.151,227.163z"/>
</g>
<g>
</g>
<g>
</g>
<g>
</g>
<g>
</g>
<g>
</g>
<g>
</g>
<g>
</g>
<g>
</g>
<g>
</g>
<g>
</g>
<g>
</g>
<g>
</g>
<g>
</g>
<g>
</g>
<g>
</g>
</svg>
