<svg clip-rule="evenodd" fill-rule="evenodd" stroke-linejoin="round" stroke-miterlimit="1.41421" viewBox="0 0 560 400" xmlns="http://www.w3.org/2000/svg"><g transform="matrix(.5 0 0 .5 114.401 -675.803)"><path d="m763.043 1721.46 22.081-38.25c1.246-2.14.493-4.87-1.623-6.11-2.115-1.25-4.868-.52-6.085 1.62l-22.371 38.74c-17.068-7.79-36.28-12.14-56.941-12.14s-39.874 4.35-56.941 12.14l-22.371-38.74c-1.246-2.14-3.97-2.87-6.115-1.62-2.144 1.24-2.868 3.97-1.622 6.11l22.081 38.25c-38.077 20.63-63.867 59.17-68.127 104.29h266.189c-4.259-45.12-30.05-83.66-68.155-104.29zm-126.053 66.91c-6.172 0-11.157-5.01-11.157-11.16 0-6.17 5.014-11.15 11.157-11.15 6.172 0 11.156 5.01 11.156 11.15.031 6.15-4.984 11.16-11.156 11.16zm122.199 0c-6.172 0-11.157-5.01-11.157-11.16 0-6.17 5.014-11.15 11.157-11.15 6.172 0 11.156 5.01 11.156 11.15.031 6.15-4.984 11.16-11.156 11.16z" fill="#32de84" fill-rule="nonzero"/><g transform="matrix(.907308 0 0 .907308 904.544 353.831)"><g fill-rule="nonzero"><path d="m-1130.21 1510.23c-26.03 0-52.79 20.85-52.79 57.35 0 33.37 23.53 56.95 52.79 56.95 24.14 0 34.91-16.21 34.91-16.21v7.06c0 3.34 3.16 7.07 7.06 7.07h17.46v-109.73h-24.52v13.92s-10.86-16.41-34.91-16.41zm4.36 22.43c21.43 0 32.67 18.85 32.67 34.92 0 17.9-13.35 34.9-32.62 34.9-16.11 0-32.25-13.05-32.25-35.14 0-19.94 13.89-34.68 32.2-34.68z"/><path d="m-1036.7 1622.45c-3.77 0-7.07-2.7-7.07-7.07v-102.66h24.53v13.58c5.55-8.35 16.41-16.11 33.073-16.11 27.235 0 41.737 21.71 41.737 42.02v70.24h-17.04c-4.469 0-7.482-3.74-7.482-7.48v-57.36c0-11.25-6.894-24.92-22.84-24.92-17.208 0-27.448 16.26-27.448 31.57v58.19z"/><path d="m-872.942 1510.23c-26.024 0-52.784 20.85-52.784 57.35 0 33.37 23.528 56.95 52.784 56.95 24.15 0 34.913-16.21 34.913-16.21v7.06c0 3.34 3.158 7.07 7.066 7.07h17.456v-164.59h-24.522v68.78s-10.853-16.41-34.913-16.41zm4.369 22.43c21.423 0 32.661 18.85 32.661 34.92 0 17.9-13.343 34.9-32.616 34.9-16.111 0-32.25-13.05-32.25-35.14 0-19.94 13.888-34.68 32.205-34.68z"/><path d="m-779.425 1622.45c-3.768 0-7.066-2.7-7.066-7.07v-102.66h24.522v18.29c4.221-10.25 13.329-19.54 29.509-19.54 4.511 0 8.729.84 8.729.84v25.35s-5.267-2.08-11.638-2.08c-17.206 0-26.6 16.26-26.6 31.57v55.3z"/><path d="m-574.937 1622.45c-3.767 0-7.065-2.7-7.065-7.07v-102.66h24.522v109.73z"/><path d="m-485.577 1510.23c-26.024 0-52.784 20.85-52.784 57.35 0 33.37 23.528 56.95 52.784 56.95 24.15 0 34.913-16.21 34.913-16.21v7.06c0 3.34 3.157 7.07 7.066 7.07h17.456v-164.59h-24.522v68.78s-10.853-16.41-34.913-16.41zm4.368 22.43c21.424 0 32.662 18.85 32.662 34.92 0 17.9-13.343 34.9-32.616 34.9-16.111 0-32.25-13.05-32.25-35.14 0-19.94 13.888-34.68 32.204-34.68z"/></g><circle cx="-569.934" cy="1472.84" r="16.219"/><path d="m-659.061 1510.19c-27.254 0-57.198 20.35-57.198 57.2 0 33.58 25.505 57.14 57.139 57.14 38.986 0 58.022-31.34 58.022-56.93 0-31.4-24.512-57.41-57.963-57.41zm.09 22.9c18.847 0 32.906 15.19 32.906 34.37 0 19.51-14.924 34.56-32.85 34.56-16.641 0-32.817-13.54-32.817-34.23 0-21.04 15.385-34.7 32.761-34.7z" fill-rule="nonzero"/></g></g></svg>