<svg id="Layer_1" xmlns="http://www.w3.org/2000/svg" viewBox="0 0 270 80"><style>.st0{fill:#A6A6A6;} .st1{fill:#FFFFFF;}</style><path class="st0" d="M260.4 80H9.5C4.2 80 0 75.7 0 70.5v-61C0 4.2 4.2 0 9.5 0h250.9c5.2 0 9.6 4.2 9.6 9.5v61.1c0 5.1-4.4 9.4-9.6 9.4z"/><path d="M268.1 70.5c0 4.2-3.4 7.7-7.7 7.7H9.5c-4.2 0-7.7-3.4-7.7-7.7V9.4c0-4.2 3.4-7.7 7.7-7.7h250.9c4.2 0 7.7 3.4 7.7 7.7v61.1z"/><path class="st1" d="M60.3 39.6c-.1-6.4 5.3-9.6 5.5-9.7-3-4.4-7.7-5-9.3-5.1-3.9-.4-7.8 2.4-9.8 2.4-2 0-5.1-2.3-8.5-2.2-4.3.1-8.3 2.5-10.5 6.4-4.5 7.8-1.2 19.4 3.2 25.7 2.2 3.1 4.7 6.6 8 6.5 3.2-.1 4.5-2.1 8.4-2.1 3.9 0 5 2.1 8.4 2 3.5-.1 5.7-3.1 7.8-6.3 2.5-3.6 3.5-7.1 3.6-7.2-.1-.2-6.8-2.7-6.8-10.4zm-6.4-19c1.7-2.2 2.9-5.2 2.6-8.2-2.5.1-5.7 1.8-7.5 3.9-1.6 1.9-3.1 5-2.7 7.9 2.8.2 5.7-1.4 7.6-3.6zM107.3 63h-4.5l-2.5-7.8h-8.6L89.2 63h-4.4l8.6-26.6h5.3l8.6 26.6zm-7.8-11.1L97.3 45c-.2-.7-.7-2.4-1.3-5h-.1c-.3 1.1-.7 2.8-1.3 5l-2.2 7 7.1-.1zm29.8 1.3c0 3.3-.9 5.8-2.6 7.7-1.6 1.7-3.5 2.5-5.9 2.5-2.5 0-4.3-.9-5.4-2.7h-.1v10.1H111V50.1c0-2.1-.1-4.2-.2-6.3h3.8l.2 3h.1c1.4-2.3 3.6-3.4 6.5-3.4 2.3 0 4.2.9 5.7 2.7 1.5 1.8 2.2 4.2 2.2 7.1zm-4.3.1c0-1.9-.4-3.4-1.3-4.6-.9-1.3-2.2-1.9-3.7-1.9-1.1 0-2 .4-2.9 1-.9.7-1.4 1.6-1.7 2.7-.1.5-.2 1-.2 1.3V55c0 1.4.4 2.6 1.3 3.5s2 1.4 3.3 1.4c1.6 0 2.9-.6 3.8-1.9.9-1 1.4-2.6 1.4-4.7zm26.4-.1c0 3.3-.9 5.8-2.6 7.7-1.6 1.7-3.5 2.5-5.9 2.5-2.5 0-4.3-.9-5.4-2.7h-.1v10.1h-4.3V50.1c0-2.1-.1-4.2-.2-6.3h3.8l.2 3h.1c1.4-2.3 3.6-3.4 6.5-3.4 2.3 0 4.2.9 5.7 2.7 1.4 1.8 2.2 4.2 2.2 7.1zm-4.3.1c0-1.9-.4-3.4-1.3-4.6-.9-1.3-2.2-1.9-3.7-1.9-1.1 0-2 .4-2.9 1-.9.7-1.4 1.6-1.7 2.7-.1.5-.2 1-.2 1.3V55c0 1.4.4 2.6 1.3 3.5.9 1 2 1.4 3.3 1.4 1.6 0 2.9-.6 3.8-1.9.9-1 1.3-2.6 1.4-4.7zm29 2.2c0 2.3-.8 4.1-2.4 5.5-1.7 1.6-4.1 2.3-7.2 2.3-2.9 0-5.2-.5-6.9-1.7l1-3.6c1.9 1.1 3.9 1.7 6.2 1.7 1.6 0 2.9-.4 3.8-1.1.9-.7 1.3-1.7 1.3-2.9 0-1.1-.4-2-1.1-2.7-.7-.7-2-1.4-3.7-2.1-4.7-1.7-7-4.3-7-7.6 0-2.2.8-4 2.4-5.4 1.6-1.4 3.8-2.1 6.5-2.1 2.4 0 4.4.4 6 1.3l-1.1 3.5c-1.5-.8-3.2-1.2-5.1-1.2-1.5 0-2.7.4-3.5 1.1-.7.7-1.1 1.5-1.1 2.4 0 1.1.4 1.9 1.2 2.6.7.6 2 1.3 3.9 2.1 2.3.9 4 2 5.1 3.2 1.1 1.4 1.7 2.9 1.7 4.7zm14.1-8.5h-4.7v9.3c0 2.4.8 3.6 2.5 3.6.8 0 1.4-.1 1.9-.2l.1 3.2c-.8.3-1.9.5-3.3.5-1.7 0-3-.5-3.9-1.5-.9-1-1.4-2.8-1.4-5.2V47h-2.8v-3.2h2.8v-3.5l4.2-1.3v4.8h4.7l-.1 3.2zm21.2 6.3c0 3-.8 5.4-2.5 7.3-1.8 2-4.1 2.9-7 2.9-2.8 0-5.1-.9-6.7-2.8s-2.5-4.2-2.5-7.1c0-3 .9-5.4 2.6-7.3 1.7-1.9 4-2.8 7-2.8 2.8 0 5.1.9 6.8 2.8 1.5 1.7 2.3 4.1 2.3 7zm-4.4.1c0-1.8-.4-3.3-1.1-4.6-.9-1.5-2.2-2.3-3.8-2.3-1.7 0-3 .8-3.9 2.3-.8 1.3-1.1 2.8-1.1 4.6 0 1.8.4 3.3 1.1 4.6.9 1.5 2.2 2.3 3.9 2.3 1.6 0 2.9-.8 3.8-2.3.7-1.3 1.1-2.8 1.1-4.6zm18.2-5.8c-.4-.1-.9-.1-1.3-.1-1.5 0-2.7.6-3.5 1.7-.7 1-1.1 2.3-1.1 3.8v10H215V49.9c0-2.2-.1-4.2-.2-6h3.7l.2 3.7h.1c.4-1.3 1.2-2.3 2.1-3 .9-.7 2-1 3.1-1 .4 0 .8 0 1.1.1l.1 3.9zm19.1 4.9c0 .8-.1 1.4-.2 1.9h-12.8c.1 1.9.7 3.3 1.9 4.3 1.1.9 2.5 1.3 4.2 1.3 1.9 0 3.6-.3 5.2-.9l.7 3c-1.8.8-4 1.2-6.4 1.2-3 0-5.3-.9-7-2.6-1.7-1.8-2.5-4.1-2.5-7 0-2.9.8-5.3 2.4-7.2 1.7-2.1 3.9-3.1 6.7-3.1 2.8 0 4.9 1 6.3 3.1.9 1.6 1.5 3.6 1.5 6zm-4.1-1.1c0-1.3-.2-2.4-.8-3.3-.7-1.2-1.9-1.8-3.4-1.8-1.4 0-2.5.6-3.4 1.7-.7.9-1.1 2-1.3 3.3l8.9.1zM98.1 20c0 2.4-.7 4.1-2.1 5.3-1.3 1.1-3.2 1.6-5.6 1.6-1.2 0-2.2 0-3.1-.2V14c1.1-.2 2.3-.3 3.6-.3 2.3 0 4 .5 5.2 1.5 1.3 1.1 2 2.7 2 4.8zm-2.2.1c0-1.5-.4-2.7-1.2-3.5-.8-.8-2-1.2-3.5-1.2-.7 0-1.2 0-1.7.1v9.8c.3 0 .7.1 1.4.1 1.6 0 2.8-.4 3.7-1.3s1.3-2.3 1.3-4zm13.9 2c0 1.5-.4 2.6-1.2 3.6-.9 1-2 1.4-3.5 1.4-1.4 0-2.5-.5-3.3-1.4-.8-.9-1.2-2.1-1.2-3.5 0-1.5.4-2.7 1.3-3.6s2-1.4 3.4-1.4 2.5.5 3.3 1.4c.8.9 1.2 2.1 1.2 3.5zm-2.2 0c0-.9-.2-1.6-.6-2.2-.4-.8-1.1-1.1-1.9-1.1-.8 0-1.5.4-1.9 1.1-.4.6-.6 1.4-.6 2.3 0 .9.2 1.6.6 2.2.5.8 1.1 1.1 1.9 1.1.8 0 1.4-.4 1.9-1.1.4-.6.6-1.4.6-2.3zm17.9-4.7l-2.9 9.4h-1.9l-1.2-4.1c-.3-1-.6-2-.8-3-.2 1-.4 2-.8 3l-1.3 4.1h-1.9l-2.8-9.4h2.2l1.1 4.5c.3 1.1.5 2.1.6 3 .2-.8.4-1.8.8-3l1.3-4.5h1.7l1.3 4.4c.3 1.1.6 2.1.8 3.1h.1c.1-1 .4-2 .6-3.1l1.1-4.4h2zm10.9 9.5h-2.1v-5.4c0-1.7-.6-2.5-1.9-2.5-.6 0-1.1.2-1.5.7-.4.5-.6 1-.6 1.6v5.6h-2.1v-6.7c0-.8 0-1.7-.1-2.7h1.8l.1 1.5h.1c.2-.5.6-.8 1.1-1.1.6-.4 1.2-.5 1.9-.5.9 0 1.6.3 2.2.9.7.7 1.1 1.7 1.1 3.1v5.5zm5.8 0h-2.1V13.1h2.1v13.8zm12.3-4.8c0 1.5-.4 2.6-1.2 3.6-.9 1-2 1.4-3.5 1.4-1.4 0-2.5-.5-3.3-1.4-.8-.9-1.2-2.1-1.2-3.5 0-1.5.4-2.7 1.3-3.6s2-1.4 3.4-1.4 2.5.5 3.3 1.4c.8.9 1.2 2.1 1.2 3.5zm-2.2 0c0-.9-.2-1.6-.6-2.2-.4-.8-1.1-1.1-1.9-1.1-.8 0-1.5.4-1.9 1.1-.4.6-.6 1.4-.6 2.3 0 .9.2 1.6.6 2.2.5.8 1.1 1.1 1.9 1.1.8 0 1.4-.4 1.9-1.1.4-.6.6-1.4.6-2.3zm12.4 4.8h-1.9l-.2-1.1h-.1c-.6.9-1.6 1.3-2.8 1.3-.9 0-1.6-.3-2.2-.9-.5-.5-.7-1.2-.7-1.9 0-1.2.5-2 1.4-2.6 1-.6 2.3-.9 4.1-.9v-.2c0-1.2-.7-1.9-2-1.9-.9 0-1.7.2-2.5.7l-.4-1.4c.9-.5 2-.8 3.2-.8 2.5 0 3.7 1.3 3.7 3.9v3.5c.2 1 .3 1.7.4 2.3zm-2.2-3.3v-1.5c-2.3 0-3.5.6-3.5 1.9 0 .5.1.9.4 1.1.3.2.6.4 1 .4.5 0 .9-.1 1.3-.4.4-.3.6-.7.7-1.1.1-.1.1-.2.1-.4zm14.1 3.3h-1.9l-.1-1.5h-.1c-.6 1.2-1.6 1.7-3 1.7-1.1 0-2.1-.4-2.8-1.3s-1.1-2-1.1-3.5.4-2.8 1.2-3.7c.8-.9 1.8-1.3 2.9-1.3 1.3 0 2.2.4 2.7 1.3v-5.4h2.1v11.2c0 .8 0 1.7.1 2.5zm-2.2-4v-1.6c0-.3 0-.5-.1-.7-.1-.5-.4-.9-.8-1.3-.4-.3-.9-.5-1.4-.5-.8 0-1.4.3-1.8.9-.4.6-.7 1.4-.7 2.4 0 .9.2 1.7.6 2.3.5.6 1.1.9 1.8.9s1.2-.3 1.7-.8c.5-.4.7-.9.7-1.6zm20.1-.8c0 1.5-.4 2.6-1.2 3.6-.9 1-2 1.4-3.5 1.4-1.4 0-2.5-.5-3.3-1.4-.8-.9-1.2-2.1-1.2-3.5 0-1.5.4-2.7 1.3-3.6s2-1.4 3.4-1.4 2.5.5 3.3 1.4c.8.9 1.2 2.1 1.2 3.5zm-2.2 0c0-.9-.2-1.6-.6-2.2-.4-.8-1.1-1.1-1.9-1.1-.8 0-1.5.4-1.9 1.1-.4.6-.6 1.4-.6 2.3 0 .9.2 1.6.6 2.2.5.8 1.1 1.1 1.9 1.1.8 0 1.4-.4 1.9-1.1.4-.6.6-1.4.6-2.3zm13.5 4.8h-2.1v-5.4c0-1.7-.6-2.5-1.9-2.5-.6 0-1.1.2-1.5.7s-.6 1-.6 1.6v5.6h-2.1v-6.7c0-.8 0-1.7-.1-2.7h1.8l.1 1.5h.1c.2-.5.6-.8 1.1-1.1.6-.4 1.2-.5 1.9-.5.9 0 1.6.3 2.2.9.7.7 1.1 1.7 1.1 3.1v5.5zm14.1-7.9h-2.3v4.6c0 1.2.4 1.7 1.2 1.7.4 0 .7 0 .9-.1l.1 1.6c-.4.2-1 .2-1.6.2-.8 0-1.5-.3-1.9-.8-.5-.5-.7-1.4-.7-2.5V19h-1.4v-1.6h1.4v-1.7l2.1-.6v2.3h2.3c-.1 0-.1 1.6-.1 1.6zm11.1 7.9h-2.1v-5.4c0-1.7-.6-2.5-1.9-2.5-1 0-1.6.5-2 1.5-.1.2-.1.5-.1.8V27h-2.1V13.1h2.1v5.7c.7-1 1.6-1.5 2.8-1.5.9 0 1.6.3 2.2.9.7.7 1.1 1.8 1.1 3.2v5.5zm11.4-5.2c0 .4 0 .7-.1 1H236c0 .9.3 1.6.9 2.1.5.4 1.2.7 2.1.7.9 0 1.8-.1 2.5-.4l.3 1.5c-.9.4-1.9.6-3.2.6-1.5 0-2.6-.4-3.4-1.3-.8-.9-1.3-2-1.3-3.5 0-1.4.4-2.6 1.2-3.6.8-1 1.9-1.5 3.3-1.5s2.4.5 3.1 1.5c.6.7.9 1.7.9 2.9zm-2-.5c0-.6-.1-1.2-.4-1.6-.4-.6-.9-.9-1.7-.9-.7 0-1.2.3-1.7.9-.3.5-.6 1-.6 1.6h4.4z"/></svg>