<?xml version="1.0" encoding="UTF-8" standalone="no"?>
<svg
   xmlns:dc="http://purl.org/dc/elements/1.1/"
   xmlns:cc="http://creativecommons.org/ns#"
   xmlns:rdf="http://www.w3.org/1999/02/22-rdf-syntax-ns#"
   xmlns:svg="http://www.w3.org/2000/svg"
   xmlns="http://www.w3.org/2000/svg"
   xmlns:sodipodi="http://sodipodi.sourceforge.net/DTD/sodipodi-0.dtd"
   xmlns:inkscape="http://www.inkscape.org/namespaces/inkscape"
   id="Layer_1"
   viewBox="0 0 270 80"
   version="1.1"
   sodipodi:docname="app-store-google.svg"
   inkscape:version="0.92.4 (5da689c313, 2019-01-14)">
  <metadata
     id="metadata3768">
    <rdf:RDF>
      <cc:Work
         rdf:about="">
        <dc:format>image/svg+xml</dc:format>
        <dc:type
           rdf:resource="http://purl.org/dc/dcmitype/StillImage" />
      </cc:Work>
    </rdf:RDF>
  </metadata>
  <defs
     id="defs3766" />
  <sodipodi:namedview
     pagecolor="#ffffff"
     bordercolor="#666666"
     borderopacity="1"
     objecttolerance="10"
     gridtolerance="10"
     guidetolerance="10"
     inkscape:pageopacity="0"
     inkscape:pageshadow="2"
     inkscape:window-width="1920"
     inkscape:window-height="1017"
     id="namedview3764"
     showgrid="false"
     inkscape:zoom="3.2685185"
     inkscape:cx="102.66513"
     inkscape:cy="89.266723"
     inkscape:window-x="1912"
     inkscape:window-y="-8"
     inkscape:window-maximized="1"
     inkscape:current-layer="Layer_1" />
  <style
     id="style3713">.Graphic_x0020_Style_x0020_2{fill:url(#SVGID_1_);} .st0{fill:#A6A5A5;} .st1{fill:#FFFFFF;stroke:#FFFFFF;stroke-width:0.2;stroke-miterlimit:10;} .st2{fill:#FFFFFF;} .st3{fill:#5BC8F3;} .st4{fill:url(#SVGID_2_);} .st5{fill:url(#SVGID_3_);} .st6{fill:url(#SVGID_4_);}</style>
  <linearGradient
     id="SVGID_1_"
     gradientUnits="userSpaceOnUse"
     x1="-345"
     y1="-240"
     x2="-345.707"
     y2="-239.293">
    <stop
       offset="0"
       stop-color="#EE4447"
       id="stop3715" />
    <stop
       offset="1"
       stop-color="#C5166C"
       id="stop3717" />
  </linearGradient>
  <path
     d="M260 80H10C4.5 80 0 75.5 0 70V10C0 4.5 4.5 0 10 0h250c5.5 0 10 4.5 10 10v60c0 5.5-4.5 10-10 10z"
     id="path3720" />
  <path
     class="st0"
     d="M260 1.6c4.6 0 8.4 3.8 8.4 8.4v60c0 4.6-3.8 8.4-8.4 8.4H10c-4.6 0-8.4-3.8-8.4-8.4V10c0-4.6 3.8-8.4 8.4-8.4h250m0-1.6H10C4.5 0 0 4.5 0 10v60c0 5.5 4.5 10 10 10h250c5.5 0 10-4.5 10-10V10c0-5.5-4.5-10-10-10z"
     id="path3722" />
  <g
     id="g3761">
    <path
       class="st3"
       d="M20.9 15.1c-.6.6-.9 1.6-.9 2.8v44.2c0 1.2.3 2.2.9 2.8l.1.1 24.8-24.8v-.5L21 14.9l-.1.2z"
       id="path3728" />
    <linearGradient
       id="SVGID_2_"
       gradientUnits="userSpaceOnUse"
       x1="62.177"
       y1="40.001"
       x2="13.824"
       y2="40.001">
      <stop
         offset="0"
         stop-color="#FFDF00"
         id="stop3730" />
      <stop
         offset=".409"
         stop-color="#FBBC0E"
         id="stop3732" />
      <stop
         offset=".775"
         stop-color="#F9A418"
         id="stop3734" />
      <stop
         offset="1"
         stop-color="#F89B1C"
         id="stop3736" />
    </linearGradient>
    <path
       class="st4"
       d="M54 48.5l-8.3-8.3v-.5l8.3-8.3.2.1 9.8 5.6c2.8 1.6 2.8 4.2 0 5.8l-9.8 5.6H54z"
       id="path3739" />
    <linearGradient
       id="SVGID_3_"
       gradientUnits="userSpaceOnUse"
       x1="49.629"
       y1="44.586"
       x2="4.15"
       y2="90.065">
      <stop
         offset="0"
         stop-color="#EE4447"
         id="stop3741" />
      <stop
         offset="1"
         stop-color="#C5166C"
         id="stop3743" />
    </linearGradient>
    <path
       class="st5"
       d="M54.2 48.4L45.8 40 20.9 64.9c.9 1 2.4 1.1 4.2.1l29.1-16.6"
       id="path3746" />
    <linearGradient
       id="SVGID_4_"
       gradientUnits="userSpaceOnUse"
       x1="3.947"
       y1="-10.268"
       x2="41.08"
       y2="26.864">
      <stop
         offset="0"
         stop-color="#269E6F"
         id="stop3748" />
      <stop
         offset=".051"
         stop-color="#2BA06F"
         id="stop3750" />
      <stop
         offset=".466"
         stop-color="#53B26B"
         id="stop3752" />
      <stop
         offset=".797"
         stop-color="#6BBD69"
         id="stop3754" />
      <stop
         offset="1"
         stop-color="#74C168"
         id="stop3756" />
    </linearGradient>
    <path
       class="st6"
       d="M54.2 31.6L25 15c-1.7-1-3.2-.9-4.2.1l25 24.9 8.4-8.4z"
       id="path3759" />
  </g>
  <text
     xml:space="preserve"
     style="font-style:normal;font-variant:normal;font-weight:normal;font-stretch:normal;font-size:24px;line-height:1.25;font-family:sans-serif;-inkscape-font-specification:'sans-serif, Normal';font-variant-ligatures:normal;font-variant-caps:normal;font-variant-numeric:normal;font-feature-settings:normal;text-align:start;letter-spacing:0px;word-spacing:0px;writing-mode:lr-tb;text-anchor:start;fill:#e3dbdb;fill-opacity:1;stroke:none"
     x="88.351273"
     y="47.637394"
     id="text3781"><tspan
       sodipodi:role="line"
       id="tspan3783"
       x="88.351273"
       y="47.637394">Get Beta</tspan></text>
  <path
     inkscape:connector-curvature="0"
     style="fill:#32de84;fill-rule:nonzero;stroke-width:0.10461755"
     d="m 225.8533,35.899935 2.31006,-4.001621 c 0.13035,-0.223882 0.0516,-0.509487 -0.16979,-0.639213 -0.22127,-0.130772 -0.50928,-0.0544 -0.6366,0.16948 l -2.3404,4.052884 c -1.78561,-0.814971 -3.79552,-1.270057 -5.95703,-1.270057 -2.1615,0 -4.17152,0.455086 -5.95703,1.270057 l -2.3404,-4.052884 c -0.13035,-0.223881 -0.41533,-0.300252 -0.63973,-0.16948 -0.2243,0.129726 -0.30004,0.415331 -0.16969,0.639213 l 2.31006,4.001621 c -3.98352,2.15826 -6.68161,6.190221 -7.12728,10.910565 h 27.84804 c -0.44557,-4.720344 -3.14376,-8.752305 -7.13021,-10.910565 z m -13.18736,6.999961 c -0.64569,0 -1.16721,-0.524134 -1.16721,-1.167532 0,-0.645491 0.52455,-1.166486 1.16721,-1.166486 0.6457,0 1.16712,0.524134 1.16712,1.166486 0.003,0.643398 -0.52142,1.167532 -1.16712,1.167532 z m 12.78416,0 c -0.64569,0 -1.16721,-0.524134 -1.16721,-1.167532 0,-0.645491 0.52455,-1.166486 1.16721,-1.166486 0.6457,0 1.16712,0.524134 1.16712,1.166486 0.003,0.643398 -0.52142,1.167532 -1.16712,1.167532 z"
     id="path3888" />
</svg>
