<?xml version="1.0" encoding="utf-8"?>
<!-- Generator: Adobe Illustrator 19.2.1, SVG Export Plug-In . SVG Version: 6.00 Build 0)  -->
<svg version="1.1" id="Layer_1" xmlns="http://www.w3.org/2000/svg" xmlns:xlink="http://www.w3.org/1999/xlink" x="0px" y="0px"
	 viewBox="0 0 180 180" style="enable-background:new 0 0 180 180;" xml:space="preserve">
<style type="text/css">
	.st0{fill:#FFFFFF;}
</style>
<g>
	<path class="st0" d="M154.2,57.3c-0.7,0.5-18.5,10.3-18.5,32.2c0.8,25,22.5,33.7,22.8,33.7c-0.4,0.5-3.3,11.9-11.8,23.9
		c-6.8,10.3-14.3,20.8-25.8,20.8c-10.9,0-14.8-6.9-27.4-6.9c-13.5,0-17.3,6.9-27.7,6.9c-11.5,0-19.6-11-26.7-21.2
		c-9.3-13.4-17.2-34.5-17.5-54.7c-0.2-10.7,1.9-21.2,7.1-30.2c7.4-12.5,20.5-21,34.8-21.2c11-0.4,20.8,7.5,27.5,7.5
		c6.4,0,18.4-7.5,32.1-7.5C128.9,40.6,144.5,42.4,154.2,57.3z M90,38.5c-2-9.8,3.4-19.6,8.5-25.8C104.9,5.1,115.1,0,123.8,0
		c0.6,9.8-3,19.4-9.4,26.4C108.8,33.9,99,39.6,90,38.5z"/>
</g>
</svg>
