<?xml version="1.0" standalone="no"?>
<!DOCTYPE svg PUBLIC "-//W3C//DTD SVG 20010904//EN"
 "http://www.w3.org/TR/2001/REC-SVG-20010904/DTD/svg10.dtd">
<svg version="1.0" xmlns="http://www.w3.org/2000/svg"
 width="400.000000pt" height="400.000000pt" viewBox="0 0 400.000000 400.000000"
 preserveAspectRatio="xMidYMid meet">

<g transform="translate(0.000000,400.000000) scale(0.100000,-0.100000)"
fill="#000000" stroke="none">
<path d="M983 3412 c-7 -4 -13 -37 -15 -77 l-3 -70 -71 -5 c-114 -8 -154 -47
-162 -160 l-5 -69 -71 -3 c-68 -3 -71 -4 -71 -28 0 -24 3 -25 73 -28 l72 -3 0
-29 0 -30 -62 0 c-71 0 -92 -9 -86 -36 3 -16 14 -19 76 -22 l72 -3 0 -34 0
-34 -72 -3 c-70 -3 -73 -4 -73 -28 0 -24 3 -25 73 -28 l72 -3 0 -32 0 -32 -66
0 c-51 0 -69 -4 -77 -17 -20 -31 8 -48 79 -48 l64 0 0 -30 0 -29 -72 -3 c-70
-3 -73 -4 -73 -28 0 -24 3 -25 73 -28 l72 -3 0 -29 0 -30 -70 0 c-56 0 -72 -3
-77 -16 -13 -34 11 -49 81 -52 66 -3 66 -3 66 -32 l0 -29 -72 -3 c-70 -3 -73
-4 -73 -28 0 -24 3 -25 73 -28 l72 -3 0 -29 0 -30 -64 0 c-71 0 -99 -17 -79
-48 8 -13 25 -17 77 -17 l66 0 0 -32 0 -32 -72 -3 c-70 -3 -73 -4 -73 -28 0
-24 3 -25 73 -28 l72 -3 0 -32 0 -32 -66 0 c-52 0 -69 -4 -77 -17 -20 -31 8
-48 79 -48 l64 0 0 -30 0 -29 -72 -3 c-70 -3 -73 -4 -73 -28 0 -24 3 -25 73
-28 l72 -3 0 -29 c0 -29 0 -29 -66 -32 -49 -2 -70 -7 -77 -20 -20 -31 8 -48
79 -48 l64 0 0 -30 0 -29 -72 -3 c-70 -3 -73 -4 -73 -28 0 -24 3 -25 73 -28
l72 -3 0 -29 c0 -30 0 -30 -59 -30 -71 0 -91 -6 -91 -29 0 -30 22 -41 87 -41
l63 0 0 -30 0 -29 -72 -3 c-70 -3 -73 -4 -73 -28 0 -24 3 -25 73 -28 l72 -3 0
-29 c0 -30 0 -30 -58 -30 -69 0 -103 -19 -86 -47 9 -14 26 -19 78 -21 66 -3
66 -3 66 -32 l0 -29 -72 -3 c-70 -3 -73 -4 -73 -28 0 -24 3 -25 71 -28 l71 -3
5 -69 c9 -116 55 -160 171 -160 l67 0 0 -75 0 -75 30 0 30 0 0 75 0 75 30 0
29 0 3 -72 c3 -71 4 -73 31 -76 17 -2 27 2 28 10 0 7 2 40 3 73 2 59 2 60 31
60 l30 0 3 -73 c3 -73 3 -73 30 -70 26 3 27 5 30 76 l3 73 31 -3 c30 -3 30 -4
33 -63 3 -88 2 -87 33 -83 26 3 27 5 30 76 l3 72 29 0 30 0 0 -76 0 -75 28 3
c26 3 27 5 30 76 l3 72 29 0 29 0 3 -72 3 -73 30 0 30 0 3 73 3 72 29 0 30 0
0 -75 0 -75 30 0 29 0 3 72 3 73 29 0 c28 0 29 -2 31 -55 1 -30 3 -63 4 -73 1
-14 8 -18 29 -15 26 3 27 5 30 76 3 73 3 73 30 70 26 -3 27 -5 30 -75 l3 -73
29 0 30 0 0 76 0 75 33 -3 32 -3 3 -73 c3 -73 3 -73 30 -70 26 3 27 5 30 76
l3 72 29 0 30 0 0 -75 0 -75 30 0 29 0 3 73 3 72 30 0 c33 0 30 9 34 -123 1
-19 6 -23 29 -20 26 3 27 5 30 76 l3 72 29 0 29 0 3 -72 c3 -71 4 -73 31 -76
l27 -3 0 76 0 76 33 -3 32 -3 3 -73 c3 -73 3 -73 30 -70 26 3 27 5 30 75 l3
73 29 0 29 0 3 -72 c3 -71 4 -73 30 -76 27 -3 27 -3 30 70 l3 73 30 0 30 0 3
-73 c3 -73 3 -73 30 -70 26 3 27 5 30 75 l3 73 29 0 30 0 0 -75 0 -75 30 0 29
0 3 73 3 72 70 6 c114 9 155 53 155 168 l0 61 75 0 75 0 0 30 0 30 -75 0 -75
0 0 30 c0 30 0 30 59 30 75 0 91 6 91 35 0 29 -16 35 -91 35 -59 0 -59 0 -59
30 l0 30 75 0 75 0 0 30 0 29 -72 3 c-71 3 -73 4 -76 30 -3 27 -3 27 70 30
l73 3 0 30 0 30 -72 3 -73 3 0 29 0 30 75 0 75 0 0 30 0 30 -75 0 -75 0 0 30
0 29 73 3 72 3 0 30 0 30 -73 3 c-73 3 -73 3 -70 30 3 26 5 27 76 30 l72 3 0
29 0 29 -72 3 c-71 3 -73 4 -76 30 -3 27 -3 27 70 30 71 3 73 4 76 30 3 23 -1
27 -37 33 -22 4 -55 5 -73 3 -31 -3 -33 -1 -36 30 l-3 32 75 0 76 0 0 30 0 30
-75 0 -75 0 0 30 c0 30 1 30 55 31 30 1 60 3 65 4 6 1 15 3 21 4 6 0 9 13 7
29 -3 26 -5 27 -76 30 -73 3 -73 3 -70 30 3 26 5 27 76 30 l72 3 0 29 0 29
-72 3 c-71 3 -73 4 -76 31 -3 27 -3 27 60 27 74 0 91 9 86 41 -3 22 -8 24 -75
27 l-73 3 0 29 0 29 73 3 c70 3 72 4 75 30 3 27 3 27 -70 30 -71 3 -73 4 -76
30 -3 27 -3 27 70 30 l73 3 0 30 0 30 -70 1 -70 1 -3 32 -3 31 75 0 76 0 0 30
0 29 -72 3 -73 3 0 30 0 30 73 3 c73 3 73 3 70 30 -3 26 -5 27 -75 30 l-73 3
0 29 0 30 75 0 75 0 0 30 0 29 -72 3 -73 3 -5 70 c-9 115 -40 147 -154 155
l-71 5 -3 72 c-2 51 -7 73 -17 77 -34 13 -44 -4 -47 -77 -3 -70 -4 -72 -30
-75 l-28 -3 0 75 c0 67 -2 75 -21 81 -31 10 -38 -3 -41 -80 l-3 -70 -30 0 -30
0 -3 73 c-2 53 -7 75 -18 79 -30 11 -44 -17 -44 -88 l0 -69 -30 0 -30 0 0 69
c0 72 -13 97 -43 85 -12 -4 -17 -23 -19 -77 l-3 -72 -30 0 -30 0 -3 72 c-2 54
-7 73 -19 77 -30 12 -43 -13 -43 -85 l0 -69 -30 0 -30 0 0 69 c0 71 -14 99
-44 88 -11 -4 -16 -26 -18 -79 l-3 -73 -30 0 -30 0 -3 70 c-3 77 -10 90 -41
80 -19 -6 -21 -14 -21 -81 l0 -74 -30 0 -30 0 0 69 c0 72 -13 97 -43 85 -12
-4 -17 -23 -19 -77 l-3 -72 -32 -3 -33 -3 0 74 c0 57 -4 76 -15 81 -34 13 -44
-4 -47 -77 -3 -70 -4 -72 -30 -75 l-28 -3 0 70 c0 61 -3 72 -21 82 -32 17 -42
-1 -45 -78 -2 -67 -3 -68 -31 -68 -28 0 -28 0 -31 72 -3 73 -13 90 -47 77 -11
-5 -15 -24 -15 -80 l0 -74 -30 0 -29 0 -3 71 c-2 54 -7 75 -20 82 -32 20 -48
-8 -48 -85 l0 -69 -27 3 c-27 3 -28 5 -31 75 -3 73 -13 90 -47 77 -11 -5 -15
-24 -15 -80 l0 -74 -30 0 -30 0 0 70 c0 61 -3 71 -22 81 -33 18 -50 -12 -47
-86 l3 -60 -30 0 -29 0 -3 72 c-2 51 -7 73 -17 77 -34 13 -44 -4 -47 -77 l-3
-72 -29 0 -30 0 -1 68 c-2 74 -15 98 -43 81 -13 -9 -18 -28 -20 -83 -3 -72 -3
-72 -30 -69 -26 3 -27 5 -30 73 -3 61 -12 85 -32 85 -3 0 -10 -4 -17 -8z"/>
</g>
</svg>
