<?xml version="1.0" standalone="no"?>
<!DOCTYPE svg PUBLIC "-//W3C//DTD SVG 20010904//EN"
 "http://www.w3.org/TR/2001/REC-SVG-20010904/DTD/svg10.dtd">
<svg version="1.0" xmlns="http://www.w3.org/2000/svg"
 width="1867.000000pt" height="592.000000pt" viewBox="0 0 1867.000000 592.000000"
 preserveAspectRatio="xMidYMid meet">
<metadata>
Created by potrace 1.15, written by Peter Selinger 2001-2017
</metadata>
<g transform="translate(0.000000,592.000000) scale(0.100000,-0.100000)"
fill="#000000" stroke="none">
<path d="M12350 5870 c-182 -49 -351 -105 -549 -181 -143 -56 -161 -61 -275
-70 -372 -30 -554 -58 -751 -114 -337 -96 -686 -275 -955 -491 -99 -80 -318
-296 -374 -371 l-40 -52 -52 77 c-71 105 -126 166 -195 212 -32 22 -93 70
-136 106 -102 87 -134 108 -216 139 -92 34 -158 69 -242 125 -436 293 -1052
449 -1622 410 -498 -34 -915 -168 -1297 -419 -76 -50 -155 -95 -176 -101 -27
-7 -60 -7 -112 1 -143 22 -293 -7 -359 -69 -47 -45 -139 -208 -177 -314 -15
-43 -30 -78 -33 -78 -3 0 -28 28 -56 63 -68 83 -279 289 -376 365 -732 579
-1815 722 -2727 360 -340 -135 -615 -321 -885 -599 -197 -203 -333 -398 -461
-663 -270 -558 -341 -1219 -198 -1850 83 -372 279 -776 519 -1071 161 -198
435 -438 650 -568 715 -433 1673 -505 2473 -186 324 130 573 293 835 548 l137
134 0 -49 c1 -305 179 -525 584 -720 164 -79 350 -142 581 -199 370 -91 422
-95 1120 -80 279 6 433 4 580 -5 159 -10 227 -10 330 -1 139 13 374 56 519 95
l90 24 18 -23 c27 -34 134 -113 198 -145 161 -81 361 -115 630 -107 317 10
560 65 957 218 175 68 205 71 314 33 126 -43 369 -102 515 -124 198 -30 556
-38 762 -16 696 74 1309 378 1747 867 l78 87 61 -76 c391 -487 955 -817 1596
-937 330 -61 770 -61 1100 0 844 157 1527 666 1901 1415 195 392 289 809 289
1280 0 217 -8 311 -41 505 -96 564 -347 1062 -729 1446 -69 69 -163 156 -210
193 -220 174 -512 337 -774 431 -612 219 -1360 219 -1972 0 -171 -61 -422
-186 -563 -280 -63 -41 -116 -74 -117 -72 -2 2 -9 50 -14 108 -43 419 -224
666 -584 795 l-97 34 -537 -1 -537 0 -145 -39z m872 -125 c244 -32 386 -94
519 -225 96 -94 142 -176 173 -302 60 -250 -1 -616 -171 -1012 l-33 -78 39
-78 c21 -42 41 -83 45 -91 4 -9 8 -10 11 -3 3 6 35 60 71 120 362 604 969
1011 1674 1121 161 24 519 24 680 -1 138 -21 344 -73 460 -115 124 -46 370
-169 480 -241 503 -330 867 -847 1003 -1425 149 -634 32 -1297 -325 -1836
-382 -576 -995 -953 -1688 -1039 -108 -13 -418 -13 -535 0 -411 47 -819 211
-1152 462 -261 197 -506 484 -647 758 -26 50 -49 90 -51 90 -3 0 -21 -32 -41
-72 -243 -482 -699 -905 -1215 -1127 -323 -138 -615 -196 -984 -195 -367 1
-639 56 -974 199 l-111 48 -119 -56 c-65 -31 -182 -81 -258 -111 -473 -187
-896 -236 -1160 -132 -239 93 -385 332 -387 631 l-1 110 82 50 c45 27 137 87
204 133 66 46 123 82 125 80 2 -2 -3 -44 -12 -93 -19 -120 -19 -315 1 -401 32
-140 114 -239 250 -304 101 -48 167 -62 304 -61 124 0 256 24 401 72 106 35
325 127 370 156 l30 19 -95 63 c-385 252 -722 646 -890 1042 -38 89 -41 103
-34 146 4 27 13 89 19 138 20 167 31 218 89 399 58 178 87 293 78 302 -2 3 -8
-12 -12 -33 -11 -63 -75 -252 -111 -332 -34 -73 -123 -231 -131 -231 -2 0 1
10 8 21 15 28 -1 39 -58 39 -36 0 -41 3 -36 18 3 9 4 15 0 12 -3 -3 -19 -41
-37 -85 -64 -165 -99 -230 -123 -231 -12 -1 -63 -2 -113 -4 l-91 -3 -21 -43
c-18 -36 -27 -44 -59 -50 -48 -8 -75 -22 -68 -34 3 -6 -1 -7 -9 -4 -9 3 -16 9
-16 13 0 3 -56 4 -125 2 -100 -2 -125 0 -126 10 0 8 -11 -9 -23 -37 -39 -85
-95 -165 -168 -241 -59 -60 -74 -70 -92 -64 -11 5 -78 17 -148 27 -127 18
-152 28 -103 40 14 3 25 9 25 13 0 8 -122 33 -158 33 -31 0 -31 0 73 43 137
56 317 165 361 218 10 12 13 17 5 11 -9 -9 -29 -6 -78 12 -36 13 -67 24 -69
24 -2 0 -12 -17 -23 -38 -33 -65 -51 -75 -120 -67 -34 4 -61 11 -61 17 0 5
-14 -2 -31 -16 -17 -14 -36 -26 -42 -26 -7 0 2 8 18 19 17 10 55 45 85 77 30
32 60 59 65 59 6 0 29 19 51 43 51 53 67 54 62 5 -3 -35 -1 -38 25 -41 118
-14 310 331 377 674 11 60 22 110 24 112 5 5 46 -105 46 -123 0 -8 4 -16 8
-19 10 -6 37 106 52 209 19 136 12 469 -16 715 l-6 55 32 -30 c48 -45 115
-142 154 -225 l36 -74 0 108 c0 403 -166 822 -425 1075 -47 46 -85 86 -85 89
0 8 63 -5 120 -27 64 -24 218 -122 278 -176 23 -20 42 -33 42 -28 0 16 -118
203 -169 266 -83 104 -253 267 -286 274 -5 1 -57 18 -114 37 -58 20 -109 36
-113 36 -5 0 22 -23 59 -51 80 -60 94 -72 73 -65 -8 3 -39 8 -69 10 l-53 3 33
-20 c103 -63 174 -114 251 -181 111 -97 116 -110 35 -84 -34 11 -71 24 -82 28
-11 5 -37 11 -57 15 l-37 6 4 -41 4 -41 -52 7 c-51 6 -121 44 -157 86 -8 9
-29 19 -47 21 -17 3 -37 8 -44 13 -14 8 -5 -11 18 -38 20 -22 24 -68 7 -61 -8
3 -14 14 -14 24 0 24 -48 38 -61 18 -13 -20 -11 -63 4 -78 10 -11 8 -12 -10
-6 -26 7 -28 3 -12 -26 13 -26 -4 -49 -37 -49 -24 0 -33 -23 -14 -35 6 -4 -18
-25 -52 -47 -135 -88 -277 -138 -452 -159 -202 -25 -464 41 -644 163 l-53 35
45 59 c24 32 56 70 70 83 14 14 26 29 26 36 0 6 15 19 33 30 l32 20 -44 9 -45
10 -49 -55 c-135 -150 -207 -353 -207 -583 0 -181 31 -290 114 -406 49 -68 58
-89 64 -144 8 -74 8 -168 0 -189 -7 -17 -9 -17 -40 -1 l-33 17 33 -38 c34 -38
37 -61 4 -32 -22 20 -126 67 -149 67 -13 0 -14 -2 -2 -17 13 -15 12 -15 -8 -5
-12 7 -57 12 -100 12 -137 0 -252 -42 -347 -128 -28 -25 -41 -36 -30 -23 l22
23 -40 65 c-93 154 -198 415 -258 642 -10 40 -12 42 -25 25 -11 -14 -14 -15
-15 -5 0 8 6 22 13 30 11 13 11 26 2 66 -8 35 -13 45 -18 32 -3 -9 -11 -17
-17 -17 -17 0 -11 29 9 41 11 8 16 19 13 31 -4 17 -6 18 -22 3 -17 -15 -18
-14 -25 25 -5 31 -3 46 9 59 19 21 23 52 4 33 -7 -7 -15 -12 -18 -12 -3 0 -6
57 -6 128 1 100 4 130 16 140 13 10 13 11 -2 6 -33 -11 -18 6 18 21 105 44
372 60 498 31 l58 -14 30 34 c17 19 34 32 39 29 4 -3 13 3 19 14 5 11 34 40
64 64 l54 44 -32 19 c-17 10 -34 18 -38 16 -5 -1 -8 3 -8 9 0 5 -6 7 -12 3 -7
-4 -5 2 5 13 10 11 32 24 49 27 18 3 40 14 50 23 19 17 25 63 7 63 -5 0 -7 5
-4 10 4 7 -18 10 -61 9 -41 -1 -70 3 -72 9 -2 7 -21 9 -53 5 -30 -4 -49 -2
-49 4 0 28 -204 -47 -362 -133 -57 -31 -141 -83 -188 -115 l-84 -59 -23 22
c-13 12 -23 26 -23 31 0 15 130 145 230 229 622 522 1459 679 2235 417 119
-41 387 -173 500 -246 183 -120 440 -354 532 -483 38 -53 47 -50 22 7 -36 84
-107 179 -202 269 -73 70 -84 83 -52 65 64 -35 169 -130 228 -204 50 -63 55
-73 65 -146 10 -67 18 -90 58 -152 26 -40 47 -79 47 -86 0 -7 4 -13 9 -13 4 0
7 -3 6 -7 -4 -15 45 -98 50 -85 11 34 -50 256 -95 347 -14 28 -41 69 -60 93
-53 65 -23 50 45 -22 130 -139 268 -408 312 -608 7 -32 16 -58 19 -57 3 0 27
44 53 97 122 247 349 532 581 728 452 380 1005 584 1583 584 l162 0 78 36
c317 145 838 298 1074 317 115 9 279 6 382 -8z m-10237 -330 c657 -101 1239
-467 1614 -1015 63 -92 126 -200 117 -200 -3 0 -13 15 -22 33 -104 202 -372
508 -601 686 -335 260 -750 430 -1178 482 -160 19 -446 15 -610 -10 -432 -65
-821 -235 -1160 -508 -125 -101 -307 -288 -404 -416 -81 -106 -106 -131 -41
-39 128 180 294 360 443 481 288 233 651 407 1007 480 83 17 139 26 300 45 80
9 430 -3 535 -19z m2258 -493 c4 -32 15 -85 25 -118 l19 -61 -51 -22 c-28 -12
-64 -28 -81 -36 -16 -7 -45 -17 -62 -20 -18 -4 -37 -14 -43 -23 -17 -31 -10
-2 15 61 37 89 47 107 57 101 4 -3 8 1 8 8 0 38 78 168 100 168 4 0 10 -26 13
-58z m-4036 -1539 c241 -413 439 -750 440 -749 1 1 -11 37 -26 81 -200 563
110 1191 679 1379 58 19 140 39 183 45 52 7 455 11 1176 11 l1098 0 36 -79
c159 -348 225 -676 214 -1069 -7 -265 -40 -450 -124 -701 -314 -940 -1228
-1601 -2215 -1601 -76 0 -138 2 -138 5 0 4 905 1593 968 1699 3 5 -30 -28 -74
-73 -100 -106 -185 -169 -306 -230 -53 -27 -94 -52 -90 -55 3 -4 0 -5 -8 -2
-8 3 -42 -3 -75 -14 -33 -10 -51 -19 -40 -20 45 -2 -66 -31 -162 -42 -307 -36
-623 77 -861 306 -41 39 -72 65 -70 57 5 -25 -238 -90 -472 -127 -210 -33
-589 -26 -818 16 -34 6 -66 8 -71 5 -26 -15 -121 323 -157 555 -24 154 -24
499 0 650 47 293 150 585 291 825 l57 98 64 -109 c35 -60 260 -447 501 -861z
m5663 751 c45 -15 80 -40 80 -56 0 -4 -3 -7 -7 -6 -5 1 -21 -4 -38 -11 -83
-34 -235 -40 -272 -10 -15 13 -15 12 -4 -8 16 -31 1 -29 -44 7 -37 29 -33 41
6 20 10 -6 19 -8 19 -6 0 3 -17 14 -38 25 -21 11 -43 30 -49 43 l-10 23 156
-3 c104 -2 171 -8 201 -18z m96 -180 c-4 -15 -10 -39 -13 -56 -3 -16 -22 -43
-43 -61 -35 -29 -330 -207 -345 -207 -3 0 -15 20 -26 45 -17 38 -24 45 -41 39
-15 -4 -18 -3 -13 6 6 9 3 9 -12 1 -18 -9 -22 -6 -35 29 l-16 38 34 33 c19 18
34 28 34 21 0 -6 16 0 36 13 29 19 50 25 93 25 42 0 52 -3 41 -11 -11 -8 -2
-9 35 -5 48 5 49 5 25 -10 l-25 -15 25 6 c14 4 54 21 90 37 36 17 67 31 71 30
3 0 21 15 40 33 41 41 53 43 45 9z m-599 -1081 c7 -3 11 -8 8 -12 -2 -4 23
-21 55 -36 33 -16 60 -32 60 -36 0 -14 113 -50 175 -56 80 -7 142 7 292 67 68
28 154 55 192 62 134 23 294 -25 384 -114 50 -51 63 -87 45 -126 -21 -42 -55
-48 -158 -27 -108 21 -253 17 -316 -10 -21 -10 -57 -18 -79 -20 -22 -1 -83
-10 -135 -20 -72 -13 -131 -16 -245 -12 -217 6 -236 12 -348 117 l-92 87 1 61
c1 73 29 146 53 137 11 -4 10 0 -5 16 -10 13 8 1 41 -25 33 -27 66 -51 72 -53z
m3303 -2065 c0 -31 -120 -48 -221 -32 l-36 6 34 57 c19 31 41 77 51 104 l17
47 77 -82 c42 -46 77 -91 78 -100z"/>
<path d="M13090 5443 c-179 -28 -348 -78 -532 -155 -109 -46 -119 -52 -97 -61
93 -37 361 -177 444 -232 270 -181 479 -386 670 -657 46 -65 72 -93 77 -85 14
22 77 219 103 322 35 142 48 255 42 365 -10 162 -52 256 -159 354 -118 110
-248 157 -428 154 -52 0 -106 -3 -120 -5z"/>
<path d="M14779 4716 c-256 -150 -517 -401 -692 -666 -68 -102 -187 -327 -187
-352 0 -7 12 -57 27 -111 l27 -97 70 -21 c79 -23 100 -37 90 -62 -8 -21 -39
-22 -94 -2 -24 8 -45 13 -47 11 -4 -4 17 -128 23 -135 2 -2 65 -16 141 -30
122 -23 138 -29 141 -47 6 -41 -16 -44 -133 -18 -155 33 -146 35 -139 -33 4
-32 13 -63 20 -69 17 -14 18 -50 2 -57 -9 -3 -12 -23 -10 -65 l4 -61 111 -3
112 -3 0 -25 c0 -25 0 -25 -115 -30 l-115 -5 -3 -62 c-2 -52 0 -63 13 -63 22
0 19 -37 -5 -50 -11 -6 -20 -20 -20 -30 0 -19 -7 -20 -126 -20 l-127 0 7 -46
c27 -200 102 -438 200 -639 219 -445 549 -775 991 -990 206 -100 366 -153 581
-189 101 -18 350 -37 404 -31 19 2 80 6 135 9 398 22 838 195 1170 460 96 77
255 235 332 331 246 305 407 680 458 1069 17 134 20 411 5 536 -51 416 -220
813 -482 1125 -144 172 -329 335 -506 444 -88 55 -138 81 -110 58 10 -8 15
-17 11 -21 -4 -4 0 -4 9 -1 9 4 19 1 24 -6 4 -7 3 -10 -2 -6 -6 3 -16 2 -24
-4 -13 -7 -12 -9 2 -9 9 0 23 -9 31 -20 8 -11 17 -17 20 -13 4 3 7 -3 7 -15 0
-11 -5 -24 -10 -27 -6 -4 -8 -11 -5 -16 4 -5 0 -12 -8 -15 -7 -2 -14 -11 -14
-17 0 -7 -23 -48 -53 -91 -29 -43 -48 -76 -43 -73 6 4 37 47 69 97 32 49 67
92 77 96 10 3 14 11 11 17 -4 7 -3 8 2 4 5 -5 9 -12 10 -15 0 -4 4 -15 7 -24
14 -38 16 -49 8 -44 -12 8 -44 -42 -36 -55 4 -5 2 -8 -4 -7 -5 2 -50 -57 -100
-130 -50 -74 -84 -129 -77 -123 8 7 42 54 75 105 48 73 66 93 81 89 10 -3 27
4 39 16 12 12 26 19 31 16 16 -10 11 -25 -5 -19 -11 5 -13 2 -8 -12 5 -13 3
-16 -8 -12 -10 4 -15 -1 -16 -13 -1 -11 1 -18 5 -15 4 2 8 -8 8 -22 1 -15 -1
-21 -3 -14 -3 6 -9 12 -15 12 -6 0 -5 -6 2 -15 10 -12 10 -19 2 -27 -9 -9 -7
-17 6 -32 13 -14 13 -18 2 -12 -8 4 -2 -5 15 -20 28 -26 29 -27 5 -20 -24 6
-23 6 3 -9 26 -15 38 -45 17 -45 -5 0 -7 7 -4 15 4 8 2 15 -4 15 -5 0 -9 -15
-8 -32 1 -32 -9 -40 -244 -211 -220 -160 -1137 -821 -1164 -839 -7 -5 90 -108
242 -261 l253 -253 -787 -555 c-433 -305 -814 -578 -846 -608 -33 -30 -67 -55
-76 -56 -10 0 -24 -5 -31 -10 -10 -5 -12 -4 -7 3 4 7 9 22 11 34 3 12 26 45
53 72 62 65 615 843 607 855 -3 5 0 13 6 17 8 4 9 3 5 -4 -4 -7 -5 -12 -2 -12
3 0 20 21 37 48 18 26 26 41 17 34 -13 -11 -19 -7 -37 23 -18 31 -23 34 -41
25 -11 -6 -20 -7 -20 -3 0 4 -9 19 -20 33 -12 15 -18 18 -14 8 3 -10 3 -18 -1
-18 -8 0 -35 26 -35 34 0 12 -35 46 -47 46 -7 0 -13 5 -13 10 0 6 -11 22 -25
36 -14 14 -28 36 -31 49 -6 25 -24 35 -24 14 0 -5 -5 -7 -11 -4 -6 4 -8 9 -5
12 5 5 -2 14 -39 56 -22 25 -26 37 -27 79 -1 15 -5 25 -10 22 -7 -5 -12 25 -9
54 1 6 -5 12 -13 12 -17 0 -37 53 -30 78 5 14 4 15 -5 2 -10 -14 -16 -7 -12
13 1 5 -9 17 -21 28 -14 11 -17 17 -7 13 13 -4 15 0 12 20 -3 14 -10 26 -15
26 -6 0 -5 7 2 15 8 10 9 15 2 15 -7 0 -9 14 -7 35 4 27 2 33 -10 29 -14 -6
-15 -3 -15 69 0 15 -4 27 -10 27 -6 0 -9 19 -6 48 2 26 5 47 6 47 10 0 3 64
-8 77 -8 10 -11 25 -7 37 3 12 3 21 -2 21 -13 0 -14 40 -2 63 8 14 8 17 0 13
-5 -4 -4 6 4 20 15 29 11 49 -7 38 -5 -4 -4 4 3 17 15 28 23 159 10 159 -5 0
-11 9 -14 20 -3 11 -1 18 4 14 5 -3 9 4 9 16 0 12 4 19 9 15 6 -3 13 1 18 8 4
8 17 19 28 26 16 10 17 11 2 7 -27 -8 -10 13 19 24 17 7 22 14 17 26 -5 13 -3
15 7 9 9 -5 11 -4 6 3 -4 8 0 12 11 13 16 0 16 1 -2 9 -11 4 -83 71 -159 148
-99 100 -137 145 -133 156 17 43 39 29 183 -115 79 -79 144 -151 145 -159 0
-10 2 -11 6 -3 2 7 -15 36 -40 64 -51 59 -52 77 0 122 18 16 33 34 33 39 0 5
10 24 22 41 26 37 32 61 13 53 -12 -4 -30 33 -20 43 3 2 5 -1 5 -7 0 -7 6 -12
13 -12 7 0 18 -9 25 -20 15 -24 34 -18 26 8 -5 14 -4 15 5 2 6 -9 7 -18 1 -24
-13 -13 -13 -26 0 -26 6 0 10 8 10 17 0 11 9 4 25 -20 14 -20 28 -37 30 -37 6
0 -141 228 -161 251 -8 8 -14 23 -14 32 0 21 32 38 50 27 8 -5 18 -6 24 -3 5
3 6 1 2 -5 -6 -10 116 -207 147 -237 15 -15 0 10 -56 94 -28 41 -50 84 -51 95
-1 12 -6 21 -13 21 -6 0 -15 3 -19 8 -4 4 -3 7 3 7 6 0 14 7 17 16 3 8 2 12
-4 9 -6 -3 -10 -1 -10 4 0 6 3 11 8 11 4 0 18 10 32 21 14 11 19 18 13 14 -16
-8 -17 11 -3 20 6 4 7 12 3 18 -5 7 -8 24 -7 40 0 15 0 27 0 27 -1 0 -35 -20
-77 -44z m-120 -291 c24 -30 47 -53 51 -50 4 3 14 -3 21 -12 11 -13 11 -15 1
-9 -10 6 -11 1 -7 -17 5 -18 2 -28 -12 -37 -10 -6 -12 -10 -4 -7 8 2 19 12 25
23 12 21 27 34 40 34 4 0 -8 -16 -27 -36 -33 -34 -36 -36 -57 -21 -31 21 -130
144 -130 160 0 48 49 34 99 -28z m-308 -485 c82 -56 154 -98 160 -95 5 4 9 3
8 -2 -1 -4 1 -16 5 -25 11 -25 0 -48 -21 -48 -23 0 -332 206 -340 225 -8 21 4
45 22 45 8 0 83 -45 166 -100z m3268 81 c8 -14 5 -23 -12 -38 -40 -37 -299
-205 -328 -213 -30 -9 -55 9 -46 32 4 8 6 7 6 -4 1 -9 5 -19 10 -22 4 -3 6 5
4 18 -4 21 14 36 164 135 92 61 173 111 180 111 7 0 17 -8 22 -19z m-445 -213
c-1 -13 -5 -32 -9 -43 -14 -39 -15 -46 -5 -40 6 3 10 1 10 -5 0 -6 5 -8 10 -5
6 3 10 -3 10 -14 0 -12 5 -21 10 -21 6 0 10 -11 10 -25 0 -14 5 -25 11 -25 5
0 7 -5 4 -11 -4 -6 -14 -8 -23 -4 -14 5 -14 3 1 -13 9 -10 14 -22 10 -25 -3
-4 -1 -7 5 -7 7 0 12 -12 11 -27 0 -16 2 -39 5 -51 4 -20 3 -22 -9 -12 -11 10
-13 7 -10 -13 3 -13 6 -38 8 -55 2 -18 7 -35 10 -39 11 -10 8 -20 -9 -37 -11
-11 -12 -16 -3 -16 7 0 4 -6 -7 -15 -18 -14 -18 -14 6 -16 18 -1 20 -3 7 -6
-13 -3 -16 -10 -12 -24 4 -11 2 -25 -3 -32 -18 -23 -24 -70 -10 -79 9 -7 8 -8
-4 -4 -17 5 -23 -8 -19 -41 1 -7 -5 -10 -13 -7 -8 3 -17 0 -22 -7 -4 -8 -3
-10 4 -5 16 10 15 -7 0 -23 -11 -11 -10 -12 0 -6 11 6 12 3 3 -14 -7 -12 -9
-26 -6 -31 3 -6 2 -10 -4 -10 -10 0 -10 -18 1 -35 10 -16 -8 -39 -22 -30 -9 5
-11 4 -6 -3 4 -7 2 -12 -4 -12 -7 0 -9 -8 -5 -21 5 -15 4 -19 -4 -14 -8 5 -10
-1 -6 -18 5 -19 2 -25 -16 -30 -15 -4 -20 -11 -15 -23 5 -12 2 -15 -10 -10
-14 5 -15 4 -4 -9 9 -11 9 -15 1 -15 -7 0 -9 -4 -6 -10 3 -5 -2 -10 -11 -10
-16 0 -16 -1 2 -15 13 -11 14 -13 3 -9 -11 3 -18 -2 -22 -16 -4 -16 -2 -20 9
-16 11 4 10 0 -3 -19 -23 -31 -48 -42 -39 -18 6 16 6 17 -9 2 -8 -8 -17 -26
-20 -38 -2 -13 -7 -26 -11 -30 -4 -3 -4 2 -1 12 4 9 2 17 -3 17 -6 0 -10 -9
-10 -21 0 -14 -5 -19 -14 -16 -13 5 -30 -24 -27 -45 0 -4 -7 -4 -17 -1 -15 6
-15 5 -3 -10 12 -15 12 -17 -3 -11 -12 5 -19 1 -22 -13 -3 -11 -15 -26 -26
-34 -33 -23 -54 -41 -39 -33 9 5 12 3 7 -5 -4 -6 -15 -10 -24 -9 -11 2 -16 -3
-16 -15 2 -14 -3 -16 -20 -11 -11 3 -26 11 -32 15 -10 8 -25 -10 -25 -31 -1
-15 -25 -30 -47 -30 -20 0 -23 -3 -14 -12 18 -18 15 -25 -10 -23 -24 2 -59
-11 -69 -26 -3 -5 -17 -10 -32 -11 -18 -2 -26 -7 -22 -16 3 -9 -1 -11 -15 -7
-11 4 -20 2 -20 -4 0 -6 -7 -8 -15 -5 -8 4 -15 1 -15 -6 0 -6 -5 -8 -11 -5 -6
4 -8 13 -5 21 3 8 2 14 -3 14 -15 0 -20 -13 -11 -30 6 -12 5 -17 -5 -17 -7 0
-11 6 -8 13 5 15 -35 16 -54 2 -6 -5 -27 -11 -46 -13 -19 -1 -44 -6 -56 -10
-14 -4 -23 -2 -27 9 -3 8 -12 12 -19 10 -7 -3 -16 -1 -19 5 -4 6 -14 7 -23 4
-10 -4 -14 -2 -10 4 4 6 0 14 -9 17 -8 3 -13 9 -11 13 2 5 -5 17 -16 28 -11
11 -16 14 -12 6 5 -9 4 -12 -3 -7 -7 4 -12 14 -12 22 0 8 4 13 9 10 5 -4 7 3
4 15 -4 12 0 25 8 30 11 7 9 10 -8 15 -30 8 -29 16 7 54 17 18 30 39 30 47 0
8 5 11 10 8 13 -8 39 18 60 59 8 17 21 30 28 29 7 -2 12 6 12 17 0 11 4 20 10
20 5 0 9 4 7 8 -2 9 181 275 287 417 33 44 93 125 135 180 90 121 294 376 337
422 17 18 29 33 27 33 -3 0 20 25 51 56 43 43 59 54 69 46 10 -8 16 -6 25 9
16 24 18 24 16 -3z m626 -133 c26 -31 5 -46 -173 -121 -97 -41 -186 -74 -196
-74 -20 0 -33 22 -25 43 4 10 344 160 375 166 4 0 12 -6 19 -14z m-3600 -69
c160 -65 175 -74 175 -96 0 -18 -6 -26 -21 -28 -23 -3 -350 131 -373 153 -19
19 -6 45 21 44 13 0 102 -33 198 -73z m3728 -330 c2 -10 0 -22 -5 -27 -5 -5
-96 -27 -203 -48 -204 -41 -224 -41 -218 3 3 19 22 25 183 58 200 40 238 43
243 14z m37 -386 c3 -6 3 -19 0 -30 -6 -19 -15 -20 -216 -20 -177 0 -211 2
-215 15 -4 8 -4 22 0 30 4 13 38 15 215 15 130 0 212 -4 216 -10z m-3697 -322
c18 -18 15 -46 -5 -52 -10 -3 -101 -22 -202 -41 -167 -33 -186 -35 -200 -21
-32 33 7 46 390 125 3 0 10 -4 17 -11z m3472 -33 c96 -19 178 -39 183 -44 12
-12 2 -40 -15 -46 -7 -3 -98 12 -202 32 -136 28 -192 43 -199 55 -15 23 8 49
37 43 11 -3 100 -21 196 -40z m-3370 -291 c11 -12 11 -18 -1 -29 -18 -18 -346
-155 -371 -155 -23 0 -35 27 -19 43 14 15 340 155 362 156 9 1 22 -6 29 -15z
m3247 -55 c92 -39 174 -73 181 -76 19 -8 10 -47 -11 -51 -21 -4 -362 135 -378
154 -13 16 4 44 26 44 7 0 89 -32 182 -71z m-3089 -245 c2 -17 -29 -42 -167
-134 -143 -95 -173 -111 -186 -100 -8 7 -15 18 -15 26 0 19 321 234 345 231
12 -1 21 -11 23 -23z m2928 -82 c159 -108 189 -140 148 -156 -23 -9 -354 210
-354 234 0 52 31 40 206 -78z m-226 -287 c121 -122 143 -148 134 -162 -6 -9
-16 -19 -23 -21 -13 -4 -301 275 -301 293 0 14 21 35 35 35 5 0 75 -65 155
-145z m-2245 -95 c-1 -30 -210 -340 -229 -340 -8 0 -19 7 -26 14 -18 22 205
358 235 354 14 -2 20 -10 20 -28z m1964 -138 c111 -168 125 -202 80 -202 -13
0 -52 49 -129 165 -105 157 -119 183 -103 198 22 23 47 -4 152 -161z m-1676
-4 c8 -11 -9 -61 -62 -189 -40 -96 -79 -180 -86 -188 -16 -17 -45 -8 -45 14 0
19 126 330 147 363 15 25 31 25 46 0z m1276 8 c17 -21 151 -347 151 -368 0
-24 -28 -35 -45 -17 -13 14 -155 349 -155 366 0 11 21 33 31 33 4 0 12 -6 18
-14z m-961 -98 c7 -9 -3 -73 -31 -210 -41 -201 -52 -227 -85 -195 -12 12 -8
41 24 203 37 188 45 214 69 214 7 0 17 -6 23 -12z m650 0 c6 -7 27 -98 47
-202 33 -171 35 -191 21 -205 -14 -14 -18 -14 -31 0 -18 18 -92 377 -82 402 8
20 30 22 45 5z m-334 -24 c23 -9 24 -405 1 -424 -12 -10 -18 -10 -30 0 -12 10
-15 47 -15 209 0 211 4 230 44 215z"/>
<path d="M10340 4519 c-248 -131 -488 -317 -839 -648 -79 -75 -147 -135 -152
-134 -5 2 -9 -30 -9 -70 -1 -201 -38 -449 -99 -652 -17 -54 -28 -101 -26 -103
8 -8 86 63 125 113 45 58 81 135 101 215 18 74 16 274 -4 374 -9 44 -15 81
-13 84 6 6 26 -70 41 -153 l12 -70 34 49 c179 258 415 534 701 819 125 125
227 227 225 227 -1 0 -45 -23 -97 -51z"/>
<path d="M11357 4284 c-376 -68 -698 -326 -833 -666 -31 -79 -62 -206 -66
-276 l-3 -53 1115 1 1115 1 -3 52 c-7 140 -71 323 -168 474 -48 76 -167 198
-258 264 -140 103 -325 180 -499 209 -88 14 -308 11 -400 -6z m468 -374 c145
-46 271 -125 385 -240 89 -91 123 -146 100 -160 -18 -12 -1394 -9 -1406 3 -13
13 19 59 105 149 130 137 288 230 450 264 95 20 276 12 366 -16z"/>
<path d="M10463 2527 c32 -410 332 -775 747 -911 140 -45 230 -59 380 -59 192
0 365 40 530 123 161 81 319 217 410 353 l45 66 548 1 548 0 -6 21 c-37 115
-69 247 -87 357 l-22 132 -1549 0 -1550 0 6 -83z m1922 -289 c10 -10 -119
-161 -202 -239 -84 -77 -208 -150 -318 -186 -108 -35 -296 -44 -411 -18 -165
37 -374 171 -491 315 -64 80 -82 118 -62 131 16 10 1474 8 1484 -3z"/>
</g>
</svg>
