<svg id="Layer_1" xmlns="http://www.w3.org/2000/svg" viewBox="0 0 270 80"><style>.Graphic_x0020_Style_x0020_2{fill:url(#SVGID_1_);} .st0{fill:#A6A5A5;} .st1{fill:#FFFFFF;stroke:#FFFFFF;stroke-width:0.2;stroke-miterlimit:10;} .st2{fill:#FFFFFF;} .st3{fill:#5BC8F3;} .st4{fill:url(#SVGID_2_);} .st5{fill:url(#SVGID_3_);} .st6{fill:url(#SVGID_4_);}</style><linearGradient id="SVGID_1_" gradientUnits="userSpaceOnUse" x1="-345" y1="-240" x2="-345.707" y2="-239.293"><stop offset="0" stop-color="#EE4447"/><stop offset="1" stop-color="#C5166C"/></linearGradient><path d="M260 80H10C4.5 80 0 75.5 0 70V10C0 4.5 4.5 0 10 0h250c5.5 0 10 4.5 10 10v60c0 5.5-4.5 10-10 10z"/><path class="st0" d="M260 1.6c4.6 0 8.4 3.8 8.4 8.4v60c0 4.6-3.8 8.4-8.4 8.4H10c-4.6 0-8.4-3.8-8.4-8.4V10c0-4.6 3.8-8.4 8.4-8.4h250m0-1.6H10C4.5 0 0 4.5 0 10v60c0 5.5 4.5 10 10 10h250c5.5 0 10-4.5 10-10V10c0-5.5-4.5-10-10-10z"/><path class="st1" d="M94.8 20.5c0 1.7-.5 3-1.5 4-1.1 1.2-2.6 1.8-4.4 1.8-1.7 0-3.2-.6-4.4-1.8-1.2-1.2-1.8-2.7-1.8-4.5 0-1.8.6-3.3 1.8-4.5 1.2-1.2 2.7-1.8 4.4-1.8.9 0 1.7.2 2.5.5s1.4.8 1.9 1.3l-1.1 1.1c-.8-.9-1.9-1.4-3.3-1.4-1.3 0-2.4.4-3.3 1.3-.9.9-1.4 2-1.4 3.5 0 1.4.5 2.6 1.4 3.5.9.9 2 1.3 3.3 1.3 1.3 0 2.5-.4 3.4-1.3.6-.6.9-1.4 1-2.4h-4.4v-1.4h5.8c.1.2.1.5.1.8zM104.1 15.5h-5.5v3.8h4.9v1.4h-4.9v3.8h5.5V26h-7V14h7v1.5zM110.6 26H109V15.5h-3.4V14h8.2v1.5h-3.4V26zM119.9 26V14h1.5v12h-1.5zM128.3 26h-1.5V15.5h-3.4V14h8.2v1.5h-3.4V26zM147.2 24.4c-1.2 1.2-2.6 1.8-4.4 1.8-1.8 0-3.2-.6-4.4-1.8-1.2-1.2-1.8-2.7-1.8-4.4s.6-3.2 1.8-4.4c1.2-1.2 2.6-1.8 4.4-1.8 1.7 0 3.2.6 4.4 1.8 1.2 1.2 1.8 2.7 1.8 4.4 0 1.8-.6 3.2-1.8 4.4zm-7.6-1c.9.9 2 1.3 3.3 1.3s2.4-.4 3.3-1.3c.9-.9 1.3-2 1.3-3.4s-.4-2.5-1.3-3.4c-.9-.9-2-1.3-3.3-1.3s-2.4.4-3.3 1.3c-.9.9-1.3 2-1.3 3.4-.1 1.4.4 2.5 1.3 3.4zM151.2 26V14h1.9l5.8 9.3h.1l-.1-2.3v-7h1.5v12h-1.6l-6.1-9.8h-.1l.1 2.3V26h-1.5z"/><path class="st2" d="M136.3 43.5c-4.7 0-8.5 3.6-8.5 8.5s3.8 8.5 8.5 8.5 8.5-3.6 8.5-8.5-3.8-8.5-8.5-8.5zm0 13.7c-2.6 0-4.8-2.1-4.8-5.2s2.2-5.2 4.8-5.2c2.6 0 4.8 2.1 4.8 5.2 0 3-2.3 5.2-4.8 5.2zm-18.7-13.7c-4.7 0-8.5 3.6-8.5 8.5s3.8 8.5 8.5 8.5 8.5-3.6 8.5-8.5c.1-4.9-3.8-8.5-8.5-8.5zm0 13.7c-2.6 0-4.8-2.1-4.8-5.2s2.2-5.2 4.8-5.2c2.6 0 4.8 2.1 4.8 5.2 0 3-2.2 5.2-4.8 5.2zM95.5 46.1v3.6h8.6c-.3 2-.9 3.5-2 4.5-1.3 1.3-3.2 2.6-6.7 2.6-5.3 0-9.5-4.3-9.5-9.6s4.2-9.6 9.5-9.6c2.9 0 5 1.1 6.5 2.6l2.5-2.5c-2.2-2.1-5-3.6-9.1-3.6-7.3 0-13.4 5.9-13.4 13.2 0 7.3 6.1 13.2 13.4 13.2 3.9 0 6.9-1.3 9.2-3.7 2.4-2.4 3.1-5.7 3.1-8.4 0-.8-.1-1.6-.2-2.3H95.5zm90.6 2.8c-.7-1.9-2.9-5.4-7.3-5.4s-8 3.4-8 8.5c0 4.8 3.6 8.5 8.4 8.5 3.9 0 6.2-2.4 7.1-3.8l-2.9-1.9c-1 1.4-2.3 2.4-4.2 2.4-1.9 0-3.3-.9-4.1-2.6l11.4-4.7-.4-1zm-11.6 2.9c-.1-3.3 2.5-5 4.4-5 1.5 0 2.7.7 3.2 1.8l-7.6 3.2zm-9.2 8.2h3.7V35h-3.7v25zm-6.2-14.6h-.1c-.8-1-2.4-1.9-4.5-1.9-4.3 0-8.2 3.7-8.2 8.5s3.9 8.5 8.2 8.5c2 0 3.6-.9 4.5-1.9h.1v1.2c0 3.3-1.7 5-4.5 5-2.3 0-3.7-1.6-4.3-3l-3.3 1.4c.9 2.3 3.4 5 7.5 5 4.4 0 8.1-2.6 8.1-8.9V44h-3.5v1.4zm-4.3 11.8c-2.6 0-4.7-2.2-4.7-5.1 0-3 2.2-5.2 4.7-5.2s4.5 2.2 4.5 5.2c.1 2.9-1.9 5.1-4.5 5.1zM203.6 35h-8.9v25h3.7v-9.5h5.2c4.1 0 8.2-3 8.2-7.8s-4.1-7.7-8.2-7.7zm.1 12h-5.3v-8.6h5.3c2.8 0 4.4 2.3 4.4 4.3s-1.6 4.3-4.4 4.3zm23.1-3.5c-2.7 0-5.5 1.2-6.7 3.8l3.3 1.4c.7-1.4 2-1.8 3.4-1.8 1.9 0 3.9 1.2 3.9 3.2v.3c-.7-.4-2.1-1-3.9-1-3.6 0-7.2 2-7.2 5.6 0 3.3 2.9 5.5 6.2 5.5 2.5 0 3.9-1.1 4.8-2.4h.1V60h3.6v-9.6c.1-4.5-3.3-6.9-7.5-6.9zm-.5 13.7c-1.2 0-2.9-.6-2.9-2.1 0-1.9 2.1-2.7 4-2.7 1.6 0 2.4.4 3.4.8-.3 2.3-2.3 4-4.5 4zM247.5 44l-4.3 10.8h-.1L238.6 44h-4l6.7 15.2-3.8 8.4h3.9L251.6 44h-4.1zm-33.6 16h3.7V35h-3.7v25z"/><g><path class="st3" d="M20.9 15.1c-.6.6-.9 1.6-.9 2.8v44.2c0 1.2.3 2.2.9 2.8l.1.1 24.8-24.8v-.5L21 14.9l-.1.2z"/><linearGradient id="SVGID_2_" gradientUnits="userSpaceOnUse" x1="62.177" y1="40.001" x2="13.824" y2="40.001"><stop offset="0" stop-color="#FFDF00"/><stop offset=".409" stop-color="#FBBC0E"/><stop offset=".775" stop-color="#F9A418"/><stop offset="1" stop-color="#F89B1C"/></linearGradient><path class="st4" d="M54 48.5l-8.3-8.3v-.5l8.3-8.3.2.1 9.8 5.6c2.8 1.6 2.8 4.2 0 5.8l-9.8 5.6H54z"/><linearGradient id="SVGID_3_" gradientUnits="userSpaceOnUse" x1="49.629" y1="44.586" x2="4.15" y2="90.065"><stop offset="0" stop-color="#EE4447"/><stop offset="1" stop-color="#C5166C"/></linearGradient><path class="st5" d="M54.2 48.4L45.8 40 20.9 64.9c.9 1 2.4 1.1 4.2.1l29.1-16.6"/><linearGradient id="SVGID_4_" gradientUnits="userSpaceOnUse" x1="3.947" y1="-10.268" x2="41.08" y2="26.864"><stop offset="0" stop-color="#269E6F"/><stop offset=".051" stop-color="#2BA06F"/><stop offset=".466" stop-color="#53B26B"/><stop offset=".797" stop-color="#6BBD69"/><stop offset="1" stop-color="#74C168"/></linearGradient><path class="st6" d="M54.2 31.6L25 15c-1.7-1-3.2-.9-4.2.1l25 24.9 8.4-8.4z"/></g></svg>