<?xml version="1.0" encoding="iso-8859-1"?>
<!-- Generator: Adobe Illustrator 19.0.0, SVG Export Plug-In . SVG Version: 6.00 Build 0)  -->
<svg version="1.1" id="Capa_1" xmlns="http://www.w3.org/2000/svg" xmlns:xlink="http://www.w3.org/1999/xlink" x="0px" y="0px"
	 viewBox="0 0 512 512" style="enable-background:new 0 0 512 512;" xml:space="preserve">
<path style="fill:#00C3FF;" d="M407,512H105C47.103,512,0,464.897,0,407V105C0,47.103,47.103,0,105,0h302
	c57.897,0,105,47.103,105,105v302C512,464.897,464.897,512,407,512z"/>
<path style="fill:#00AAF0;" d="M407,0H256v512h151c57.897,0,105-47.103,105-105V105C512,47.103,464.897,0,407,0z"/>
<g>
	<path style="fill:#FFFFFF;" d="M93.92,291.895C91.361,280.331,90,268.322,90,256c0-74.132,48.849-137.064,116.046-158.314
		C206.016,95.124,206,92.562,206,90c0-9.187,2.502-17.796,6.843-25.202C125.462,84.51,60,162.75,60,256
		c0,20.269,3.093,39.829,8.831,58.234c4.243-7.466,10.45-13.94,18.409-18.535C89.459,294.418,91.686,293.15,93.92,291.895z"/>
	<path style="fill:#FFFFFF;" d="M368.045,378.37C338.494,405.45,299.145,422,256,422s-82.495-16.55-112.045-43.63
		c-2.231,1.324-4.469,2.634-6.715,3.931c-7.908,4.565-16.557,6.705-25.09,6.675C147.979,427.707,199.202,452,256,452
		s108.021-24.293,143.85-63.024c-8.533,0.03-17.182-2.109-25.09-6.675C372.514,381.005,370.276,379.694,368.045,378.37z"/>
</g>
<path style="fill:#F2F2F2;" d="M299.157,64.798C303.498,72.204,306,80.813,306,90c0,2.562-0.016,5.124-0.046,7.686
	C373.151,118.936,422,181.868,422,256c0,12.322-1.361,24.331-3.92,35.895c2.234,1.255,4.461,2.523,6.68,3.804
	c7.959,4.595,14.166,11.069,18.409,18.535C448.907,295.829,452,276.269,452,256C452,162.75,386.538,84.51,299.157,64.798z"/>
<path style="fill:#FFFFFF;" d="M414.76,313.02c-36.176-20.887-74.516-38.244-114.089-51.669C300.88,259.595,301,257.812,301,256
	c0-18.531-11.261-34.477-27.298-41.366C281.862,173.653,286,131.772,286,90c0-16.542-13.458-30-30-30s-30,13.458-30,30
	c0,41.773,4.138,83.653,12.298,124.634C222.261,221.523,211,237.469,211,256c0,1.812,0.12,3.595,0.329,5.351
	c-39.573,13.425-77.913,30.782-114.089,51.669c-14.326,8.271-19.251,26.655-10.98,40.98c5.55,9.614,15.654,14.994,26.031,14.994
	c5.086,0,10.238-1.293,14.95-4.014c36.179-20.887,70.383-45.414,101.798-72.976C236.557,297.65,245.894,301,256,301
	c10.106,0,19.443-3.35,26.963-8.995c31.415,27.562,65.619,52.088,101.797,72.976c4.713,2.721,9.863,4.014,14.95,4.014
	c10.375,0,20.481-5.381,26.031-14.994C434.012,339.674,429.086,321.291,414.76,313.02z M256,271c-8.271,0-15-6.729-15-15
	s6.729-15,15-15s15,6.729,15,15S264.271,271,256,271z"/>
<g>
	<path style="fill:#F2F2F2;" d="M368.045,378.37C338.494,405.45,299.145,422,256,422v30c56.798,0,108.021-24.293,143.85-63.024
		c-8.533,0.03-17.182-2.109-25.09-6.675C372.514,381.005,370.276,379.694,368.045,378.37z"/>
	<path style="fill:#F2F2F2;" d="M414.76,313.02c-36.176-20.887-74.516-38.244-114.089-51.669C300.88,259.595,301,257.812,301,256
		c0-18.531-11.261-34.477-27.298-41.366C281.862,173.653,286,131.772,286,90c0-16.542-13.458-30-30-30v181c8.271,0,15,6.729,15,15
		s-6.729,15-15,15v30c10.106,0,19.443-3.35,26.963-8.995c31.415,27.562,65.619,52.088,101.797,72.976
		c4.713,2.721,9.863,4.014,14.95,4.014c10.375,0,20.481-5.381,26.031-14.994C434.012,339.674,429.086,321.291,414.76,313.02z"/>
</g>
<g>
</g>
<g>
</g>
<g>
</g>
<g>
</g>
<g>
</g>
<g>
</g>
<g>
</g>
<g>
</g>
<g>
</g>
<g>
</g>
<g>
</g>
<g>
</g>
<g>
</g>
<g>
</g>
<g>
</g>
</svg>
